<svg width="15" height="16" viewBox="0 0 15 16" fill="none" xmlns="http://www.w3.org/2000/svg">
<path d="M7.5 1.1665V14.1665" stroke="#080808" stroke-miterlimit="10"/>
<path d="M1 7.66699H14" stroke="#080808" stroke-miterlimit="10"/>
<path d="M7.5 14.6665C8.68888 14.6665 9.6306 13.7157 10.2453 12.4863C10.875 11.227 11.25 9.52222 11.25 7.6665C11.25 5.81079 10.875 4.10603 10.2453 2.8467C9.6306 1.61728 8.68888 0.666504 7.5 0.666504C6.31112 0.666504 5.3694 1.61728 4.75469 2.8467C4.12503 4.10603 3.75 5.81079 3.75 7.6665C3.75 9.52222 4.12503 11.227 4.75469 12.4863C5.3694 13.7157 6.31112 14.6665 7.5 14.6665Z" stroke="#080808" stroke-miterlimit="10" stroke-linecap="square"/>
<path d="M7.5 14.6665C11.366 14.6665 14.5 11.5325 14.5 7.6665C14.5 3.80051 11.366 0.666504 7.5 0.666504C3.63401 0.666504 0.5 3.80051 0.5 7.6665C0.5 11.5325 3.63401 14.6665 7.5 14.6665Z" stroke="#080808" stroke-miterlimit="10" stroke-linecap="square"/>
</svg>
