<svg width="57" height="118" viewBox="0 0 57 118" fill="none" xmlns="http://www.w3.org/2000/svg">
<path opacity="0.3" fill-rule="evenodd" clip-rule="evenodd" d="M50.341 58.0773C56.9877 53.174 54.4815 43.2583 53.174 37.5923C50.0141 38.6819 49.3603 42.9315 49.5782 47.5079C49.5782 48.4886 50.341 55.5712 50.341 58.0773ZM47.9438 74.3128C55.7891 71.4798 56.116 61.2373 56.5518 55.4622C53.174 55.4622 51.4306 59.4938 50.232 63.9613C50.0141 65.3779 48.7065 71.9156 47.9438 74.3128ZM47.9438 42.1687C52.9561 35.413 47.9438 26.696 44.6749 21.6837C41.9508 23.645 42.6046 27.8946 44.6749 32.58C44.239 32.6889 47.0721 39.6626 47.7258 42.1687H47.9438ZM44.4569 57.4235C43.0404 61.7821 40.0984 69.3005 46.6362 73.9859C47.3989 69.7364 49.7961 59.8207 44.239 57.4235H44.4569ZM41.5149 43.5852C41.5149 48.1617 40.7522 56.225 48.2706 58.7311C48.5975 54.4815 48.0527 43.5852 41.5149 43.5852ZM41.5149 89.1318C49.9051 89.1318 53.174 78.9982 55.2443 73.5501C51.9754 72.6784 49.1423 75.9473 46.7452 79.8699C45.7645 80.6327 42.6046 87.1705 41.5149 89.1318ZM42.8225 71.9156C40.2074 75.7293 35.304 82.0492 40.2074 88.3691C41.5149 84.6643 47.0721 76.2742 42.3866 71.9156H42.8225ZM35.304 30.1828C36.6116 34.5413 38.355 42.4956 46.2004 42.7135C44.8928 38.5729 41.5149 29.0931 35.304 30.1828ZM40.8612 27.5677C43.5852 19.7223 35.9578 12.9666 31.8172 8.93497C29.7469 11.5501 31.8172 15.4728 34.3234 19.1775C34.8682 19.9402 39.4446 25.3884 40.8612 27.5677ZM30.6186 101.445C38.6819 103.297 44.5659 94.9069 48.1617 90.5483C45.2197 88.8049 41.6239 91.0931 38.246 94.1441C37.1564 94.58 32.2531 99.8102 30.6186 101.445ZM36.7206 85.3181C33.2337 88.1511 26.587 92.8365 29.529 100.246C32.362 97.304 39.7715 90.3304 36.3937 85.3181H36.7206ZM25.8243 19.9402C28.2214 23.754 32.1441 30.8366 39.8805 28.7663C37.0475 25.0615 30.6186 16.8893 25.4974 19.7223L25.8243 19.9402ZM16.4534 110.38C23.645 114.629 31.8172 108.418 36.5026 105.04C34.2144 102.425 30.0738 103.624 25.6063 105.04C24.7346 105.694 18.5237 108.963 16.1265 110.162L16.4534 110.38ZM29.7469 15.6907C30.6186 7.40949 21.3568 2.83304 16.2355 0C14.9279 3.15993 17.761 6.42882 21.2478 9.26186C22.0106 9.91564 27.8946 14.0562 29.7469 15.6907ZM26.8049 96.5413C22.5554 98.0668 14.819 100.791 15.3638 108.963C19.7223 106.893 28.5483 102.425 26.8049 96.5413ZM12.9666 11.9859C16.2355 15.1459 21.9016 20.9209 28.7663 16.9982C25.3884 14.2742 17.4341 7.95431 12.9666 11.9859ZM17.8699 9.04394C16.7102 6.65831 14.7201 4.77765 12.2728 3.75458C9.82546 2.73151 7.08897 2.63631 4.57645 3.48682C6.08464 5.5264 8.11664 7.11984 10.457 8.0982C12.7974 9.07655 15.3589 9.40334 17.8699 9.04394ZM0.217926 114.193C5.99297 120.404 15.4728 116.699 21.0299 114.847C19.6134 111.796 15.2548 111.687 10.7873 112.341C9.80668 112.45 2.83304 113.975 0.217926 114.193ZM14.3831 104.278C9.80668 104.278 1.74341 104.931 0 112.668C4.24956 112.014 14.3831 110.38 14.3831 104.278Z" fill="#1A1A1A"/>
</svg>
