<svg width="197" height="95" viewBox="0 0 197 95" fill="none" xmlns="http://www.w3.org/2000/svg">
<path fill-rule="evenodd" clip-rule="evenodd" d="M96 0C92.134 0 89 3.13401 89 7C89 7.05221 89.0006 7.10428 89.0017 7.15622V18.2141C89.9358 16.813 92.6447 14.0107 96.0074 14.0107C96.1011 14.0107 96.187 14.0071 96.2655 14H101C104.866 14 108 10.866 108 7C108 3.13401 104.866 0 101 0H96Z" fill="#F2F3F3"/>
<path fill-rule="evenodd" clip-rule="evenodd" d="M96 76C92.134 76 89 79.134 89 83C89 83.0522 89.0006 83.1043 89.0017 83.1562V94.2141C89.9358 92.813 92.6447 90.0107 96.0074 90.0107C96.1011 90.0107 96.187 90.0071 96.2655 90H101C104.866 90 108 86.866 108 83C108 79.134 104.866 76 101 76H96Z" fill="#F2F3F3"/>
<path fill-rule="evenodd" clip-rule="evenodd" d="M140 38C136.134 38 133 41.134 133 45C133 45.0522 133.001 45.1043 133.002 45.1562V56.2141C133.936 54.813 136.645 52.0107 140.007 52.0107C140.101 52.0107 140.187 52.0071 140.265 52H145C148.866 52 152 48.866 152 45C152 41.134 148.866 38 145 38H140Z" fill="#F2F3F3"/>
<path fill-rule="evenodd" clip-rule="evenodd" d="M185 0C181.134 0 178 3.13401 178 7C178 7.05221 178.001 7.10428 178.002 7.15622V18.2141C178.936 16.813 181.645 14.0107 185.007 14.0107C185.101 14.0107 185.187 14.0071 185.265 14H190C193.866 14 197 10.866 197 7C197 3.13401 193.866 0 190 0H185Z" fill="#F2F3F3"/>
<path fill-rule="evenodd" clip-rule="evenodd" d="M185 76C181.134 76 178 79.134 178 83C178 83.0522 178.001 83.1043 178.002 83.1562V94.2141C178.936 92.813 181.645 90.0107 185.007 90.0107C185.101 90.0107 185.187 90.0071 185.265 90H190C193.866 90 197 86.866 197 83C197 79.134 193.866 76 190 76H185Z" fill="#F2F3F3"/>
<path fill-rule="evenodd" clip-rule="evenodd" d="M7 0C3.13401 0 0 3.13401 0 7C0 7.05221 0.00057153 7.10428 0.00170868 7.15622V18.2141C0.935798 16.813 3.64466 14.0107 7.00738 14.0107C7.10108 14.0107 7.18702 14.0071 7.26548 14H12C15.866 14 19 10.866 19 7C19 3.13401 15.866 0 12 0H7Z" fill="#F2F3F3"/>
<path fill-rule="evenodd" clip-rule="evenodd" d="M7 76C3.13401 76 0 79.134 0 83C0 83.0522 0.00057153 83.1043 0.00170868 83.1562V94.2141C0.935798 92.813 3.64466 90.0107 7.00738 90.0107C7.10108 90.0107 7.18702 90.0071 7.26548 90H12C15.866 90 19 86.866 19 83C19 79.134 15.866 76 12 76H7Z" fill="#F2F3F3"/>
<path fill-rule="evenodd" clip-rule="evenodd" d="M51 38C47.134 38 44 41.134 44 45C44 45.0522 44.0006 45.1043 44.0017 45.1562V56.2141C44.9358 54.813 47.6447 52.0107 51.0074 52.0107C51.1011 52.0107 51.187 52.0071 51.2655 52H56C59.866 52 63 48.866 63 45C63 41.134 59.866 38 56 38H51Z" fill="#F2F3F3"/>
</svg>
