<svg width="27" height="24" viewBox="0 0 27 24" fill="none" xmlns="http://www.w3.org/2000/svg">
<mask id="path-1-inside-1" fill="white">
<path fill-rule="evenodd" clip-rule="evenodd" d="M9.23101 0C4.13286 0 0 4.13286 0 9.23101C0 9.31987 0.00125559 9.40844 0.00375 9.49669V24.0001C1.22797 22.1637 4.76579 18.5009 9.16379 18.4618C9.18618 18.4619 9.20858 18.462 9.231 18.462H17.1219C22.2201 18.462 26.3529 14.3292 26.3529 9.23101C26.3529 4.13286 22.2201 0 17.1219 0H9.23101Z"/>
</mask>
<path d="M0.00375 9.49669H3.00375V9.45431L3.00255 9.41194L0.00375 9.49669ZM0.00375 24.0001H-2.99625V33.9084L2.4999 25.6642L0.00375 24.0001ZM9.16379 18.4618L9.18527 15.4619L9.16119 15.4617L9.13713 15.4619L9.16379 18.4618ZM3 9.23101C3 5.78972 5.78972 3 9.23101 3V-3C2.47601 -3 -3 2.47601 -3 9.23101H3ZM3.00255 9.41194C3.00086 9.35192 3 9.29161 3 9.23101H-3C-3 9.34813 -2.99835 9.46495 -2.99505 9.58145L3.00255 9.41194ZM3.00375 24.0001V9.49669H-2.99625V24.0001H3.00375ZM9.13713 15.4619C6.10931 15.4888 3.52809 16.7547 1.6333 18.1277C-0.261339 19.5006 -1.69559 21.1407 -2.4924 22.336L2.4999 25.6642C2.92731 25.023 3.87408 23.9136 5.1539 22.9862C6.43358 22.0589 7.82027 21.4738 9.19046 21.4617L9.13713 15.4619ZM9.231 15.462C9.21572 15.462 9.20048 15.462 9.18527 15.4619L9.14232 21.4617C9.17187 21.4619 9.20143 21.462 9.231 21.462V15.462ZM17.1219 15.462H9.231V21.462H17.1219V15.462ZM23.3529 9.23101C23.3529 12.6723 20.5632 15.462 17.1219 15.462V21.462C23.8769 21.462 29.3529 15.986 29.3529 9.23101H23.3529ZM17.1219 3C20.5632 3 23.3529 5.78971 23.3529 9.23101H29.3529C29.3529 2.47601 23.877 -3 17.1219 -3V3ZM9.23101 3H17.1219V-3H9.23101V3Z" fill="#C8C8C8" mask="url(#path-1-inside-1)"/>
</svg>
