<svg width="90" height="85" viewBox="0 0 90 85" fill="none" xmlns="http://www.w3.org/2000/svg">
<path fill-rule="evenodd" clip-rule="evenodd" d="M84.8411 41.8319C89.6286 38.3001 87.8235 31.1581 86.8817 27.0769C84.6056 27.8618 84.1347 30.9227 84.2917 34.219C84.2917 34.9253 84.8411 40.0268 84.8411 41.8319ZM83.1145 53.526C88.7653 51.4854 89.0007 44.108 89.3147 39.9483C86.8817 39.9483 85.6259 42.8522 84.7626 46.0701C84.6056 47.0903 83.6638 51.7994 83.1145 53.526ZM83.1145 30.3733C86.7247 25.5073 83.1144 19.2286 80.7599 15.6183C78.7978 17.031 79.2687 20.0919 80.7599 23.4667C80.446 23.5452 82.4866 28.5681 82.9575 30.3733H83.1145ZM80.603 41.361C79.5827 44.5004 77.4636 49.9158 82.1726 53.2906C82.722 50.2297 84.4487 43.0877 80.446 41.361H80.603ZM78.4839 31.3936C78.4839 34.6899 77.9345 40.4977 83.3499 42.3028C83.5854 39.242 83.1929 31.3936 78.4839 31.3936ZM78.4839 64.1998C84.5272 64.1998 86.8817 56.9008 88.3729 52.9766C86.0184 52.3488 83.9778 54.7033 82.2511 57.5287C81.5448 58.0781 79.2687 62.7871 78.4839 64.1998ZM79.4257 51.7994C77.5421 54.5463 74.0103 59.0984 77.5421 63.6504C78.4839 60.982 82.4866 54.9387 79.1118 51.7994H79.4257ZM74.0103 21.74C74.9521 24.8794 76.2079 30.6087 81.8587 30.7657C80.9169 27.7833 78.4839 20.9552 74.0103 21.74ZM78.013 19.8564C79.9751 14.2056 74.4812 9.33958 71.4988 6.43568C70.0076 8.31929 71.4988 11.1447 73.304 13.8132C73.6964 14.3626 76.9927 18.2867 78.013 19.8564ZM70.6355 73.0685C76.4433 74.4027 80.6814 68.3595 83.2714 65.2201C81.1524 63.9644 78.5624 65.6125 76.1294 67.8101C75.3445 68.124 71.8128 71.8913 70.6355 73.0685ZM75.0306 61.4529C72.5191 63.4935 67.7316 66.8683 69.8507 72.2052C71.8913 70.0861 77.2282 65.0632 74.7952 61.4529H75.0306ZM67.1822 14.3626C68.9089 17.1095 71.7343 22.2109 77.3066 20.7198C75.2661 18.0513 70.6355 12.165 66.9468 14.2056L67.1822 14.3626ZM60.4326 79.5042C65.6125 82.5651 71.4988 78.0915 74.8736 75.6585C73.2255 73.7749 70.2431 74.6382 67.0253 75.6585C66.3974 76.1294 61.9238 78.4839 60.1972 79.3472L60.4326 79.5042ZM70.0076 11.3017C70.6355 5.33691 63.9644 2.04058 60.2756 0C59.3338 2.27603 61.3744 4.63055 63.8859 6.67113C64.4353 7.14204 68.6734 10.1244 70.0076 11.3017ZM67.8886 69.5367C64.8277 70.6355 59.2553 72.5976 59.6478 78.4839C62.7871 76.9927 69.1443 73.7749 67.8886 69.5367ZM57.9211 8.63323C60.2756 10.9093 64.3568 15.0689 69.3013 12.2435C66.8683 10.2814 61.139 5.72933 57.9211 8.63323ZM61.4529 6.51416C60.6176 4.79585 59.1841 3.44124 57.4214 2.70435C55.6586 1.96745 53.6876 1.89888 51.8779 2.51148C52.9642 3.98055 54.4278 5.12828 56.1135 5.83297C57.7992 6.53765 59.6442 6.77304 61.4529 6.51416ZM47.0903 81.9372C47.1724 82.2057 47.1959 82.4886 47.1592 82.767C47.1226 83.0453 47.0266 83.3126 46.8778 83.5506C46.729 83.7887 46.5308 83.9921 46.2967 84.147C46.0626 84.3019 45.798 84.4048 45.5207 84.4487C45.2524 84.5182 44.9728 84.5323 44.6989 84.4902C44.425 84.448 44.1625 84.3506 43.9275 84.2037C43.6925 84.0568 43.4899 83.8636 43.332 83.6359C43.1741 83.4081 43.0643 83.1506 43.0092 82.879C42.9106 82.34 43.017 81.7837 43.3074 81.3191C43.5978 80.8545 44.0512 80.5151 44.5789 80.3675C45.1195 80.2494 45.685 80.3474 46.1543 80.6408C46.6237 80.9341 46.9596 81.3994 47.0903 81.9372ZM4.55207 46.0701C3.76723 42.8522 2.433 40.0268 0 39.9483C0 44.108 0.549387 51.4854 6.20023 53.526C5.65084 51.7994 4.70903 47.0903 4.55207 46.0701ZM7.37749 53.2906C12.008 49.9158 9.88897 44.5004 8.86868 41.361C4.866 43.0877 6.59265 50.2297 7.37749 53.2906ZM5.10145 34.219C5.10145 30.9227 5.10145 27.8618 2.433 27.0769C1.56968 31.3936 0 38.3001 4.55207 41.8319C4.47358 40.0268 5.02297 34.9253 5.10145 34.219ZM5.65084 42.0674C11.0662 40.2622 10.5953 34.219 10.5168 31.1581C6.20023 31.3936 5.80781 39.242 5.65084 41.9104V42.0674ZM13.4992 67.8101C10.9877 65.6125 8.39778 63.9644 6.27871 65.2201C8.86868 68.5165 13.1068 74.5597 18.9931 73.0685C17.5019 71.8913 13.9701 68.124 13.4992 67.6531V67.8101ZM19.7779 72.3622C21.8185 67.0253 17.1095 63.6504 14.5195 61.6099C12.0865 65.0632 17.4234 70.0861 19.7779 72.2052V72.3622ZM7.37749 57.5287C5.65084 54.9387 3.61026 52.3488 1.25574 52.9766C2.74694 56.9008 5.10145 63.8859 11.1447 64.1998C10.1244 62.7871 7.84839 58.0781 7.37749 57.5287ZM12.0865 63.6504C15.6968 59.0984 12.0865 54.9387 10.2029 51.7994C6.8281 54.9387 10.5168 60.982 12.0865 63.6504ZM33.0417 80.9169C29.7454 80.446 26.606 80.5245 25.1933 82.722C29.196 84.0563 36.0241 86.7247 40.1838 82.2511C38.6926 82.0942 33.6696 80.9954 33.0417 80.9169ZM40.8901 80.9169C39.6344 75.3446 33.8266 75.1876 30.5302 74.8736C30.3733 79.5042 37.6723 80.6815 40.7331 81.1524L40.8901 80.9169ZM22.2894 75.8155C19.307 74.4812 16.3247 73.6179 14.441 75.8155C17.8943 78.2485 23.7021 82.722 28.8821 79.6612C27.4694 78.4839 22.9173 76.1294 22.2894 75.8155ZM29.6669 78.3269C30.0593 72.5976 24.487 70.4785 21.8185 69.5367C20.2488 73.7749 26.8415 76.9927 29.6669 78.4839V78.3269ZM37.5153 2.51148C35.6469 1.82027 33.5855 1.86545 31.7491 2.63789C29.9128 3.41032 28.4389 4.85219 27.6263 6.67113C29.4496 6.91291 31.3044 6.65344 32.9913 5.92058C34.6783 5.18772 36.1337 4.00917 37.2014 2.51148H37.5153ZM9.10413 23.5452C10.2029 20.4058 10.7523 17.3449 9.10413 15.6968C6.67113 19.2286 2.74694 25.5073 6.3572 30.3733C6.8281 28.5681 8.86868 23.5452 9.10413 23.5452ZM7.37749 31.3936C13.1068 31.3936 14.441 25.5073 15.2259 22.3679C10.9877 20.9552 8.47626 27.7833 7.37749 30.7657V31.3936ZM16.0892 13.8132C17.9728 11.1447 19.3855 8.31929 17.8943 6.43568C14.8335 9.33958 9.33958 14.2841 11.3802 19.8564C12.8468 17.7638 14.4185 15.7468 16.0892 13.8132ZM12.2435 20.5628C17.8158 22.054 20.6413 16.9525 22.3679 14.2056C18.5222 12.165 14.1271 18.0513 12.2435 20.5628ZM25.4288 6.67113C28.0188 4.63055 29.9809 2.27603 29.039 0C25.4288 2.04058 18.8361 5.33691 19.307 11.3017C20.6413 10.1244 24.8794 7.14204 25.4288 6.67113ZM20.0134 12.2435C24.9579 15.0689 29.039 10.9093 31.3936 8.63323C28.1757 5.72933 22.4464 10.2814 20.0134 12.2435ZM48.7385 82.2511C52.8981 86.7247 59.7262 84.0563 63.7289 82.722C62.7086 80.5245 59.5693 80.446 56.3514 80.9169C55.6451 80.9954 50.6221 82.0942 48.7385 82.2511ZM58.9414 75.1091C55.6451 75.1091 49.8373 75.58 48.5815 81.1524C51.6424 80.6815 58.9414 79.5042 58.9414 75.1091Z" fill="#F8F6F6"/>
</svg>
