<svg width="1440" height="750" viewBox="0 0 1440 750" fill="none" xmlns="http://www.w3.org/2000/svg">
<mask id="mask0" mask-type="alpha" maskUnits="userSpaceOnUse" x="0" y="0" width="1440" height="750">
<rect width="1440" height="750" fill="#EE0033"/>
</mask>
<g mask="url(#mask0)">
<g opacity="0.3">
<mask id="path-2-inside-1" fill="white">
<path fill-rule="evenodd" clip-rule="evenodd" d="M1290.65 458C1189.77 458 1108 539.775 1108 640.649C1108 642.059 1108.02 643.466 1108.05 644.868V932.876C1132.27 896.543 1202.26 824.074 1289.28 823.293C1289.74 823.296 1290.19 823.298 1290.65 823.298H1446.78C1547.66 823.298 1629.43 741.523 1629.43 640.649C1629.43 539.775 1547.66 458 1446.78 458H1290.65Z"/>
</mask>
<path d="M1108.05 644.868H1171.36V644.151L1171.35 643.434L1108.05 644.868ZM1108.05 932.876H1044.73V1142L1160.73 967.998L1108.05 932.876ZM1289.28 823.293L1289.75 759.978L1289.23 759.974L1288.71 759.979L1289.28 823.293ZM1171.32 640.649C1171.32 574.743 1224.74 521.316 1290.65 521.316V394.684C1154.81 394.684 1044.68 504.806 1044.68 640.649H1171.32ZM1171.35 643.434C1171.33 642.509 1171.32 641.581 1171.32 640.649H1044.68C1044.68 642.538 1044.7 644.423 1044.75 646.303L1171.35 643.434ZM1171.36 932.876V644.868H1044.73V932.876H1171.36ZM1288.71 759.979C1227.71 760.526 1175.86 786.023 1137.96 813.482C1100.07 840.94 1071.37 873.741 1055.37 897.754L1160.73 967.998C1168.94 955.678 1187.35 934.078 1212.27 916.023C1237.18 897.969 1263.83 886.84 1289.85 886.607L1288.71 759.979ZM1290.65 759.982C1290.35 759.982 1290.05 759.98 1289.75 759.978L1288.81 886.608C1289.43 886.612 1290.04 886.615 1290.65 886.615V759.982ZM1446.78 759.982H1290.65V886.615H1446.78V759.982ZM1566.12 640.649C1566.12 706.555 1512.69 759.982 1446.78 759.982V886.615C1582.63 886.615 1692.75 776.492 1692.75 640.649H1566.12ZM1446.78 521.316C1512.69 521.316 1566.12 574.744 1566.12 640.649H1692.75C1692.75 504.806 1582.63 394.684 1446.78 394.684V521.316ZM1290.65 521.316H1446.78V394.684H1290.65V521.316Z" fill="#AA0125" mask="url(#path-2-inside-1)"/>
</g>
<g opacity="0.3">
<mask id="path-4-inside-2" fill="white">
<path fill-rule="evenodd" clip-rule="evenodd" d="M130.783 225.876C231.657 225.876 313.432 144.101 313.432 43.2269C313.432 41.8167 313.416 40.4102 313.384 39.0076L313.384 -249C289.162 -212.667 219.167 -140.198 132.152 -139.417C131.696 -139.42 131.239 -139.422 130.783 -139.422L-25.3514 -139.422C-126.226 -139.422 -208 -57.6474 -208 43.2269C-208 144.101 -126.226 225.876 -25.3513 225.876L130.783 225.876Z"/>
</mask>
<path d="M313.384 39.0076L250.067 39.0076L250.067 39.7251L250.084 40.4424L313.384 39.0076ZM313.384 -249L376.7 -249L376.7 -458.12L260.701 -284.122L313.384 -249ZM132.152 -139.417L131.686 -76.1023L132.203 -76.0985L132.72 -76.1032L132.152 -139.417ZM250.115 43.2269C250.115 109.132 196.688 162.559 130.783 162.559L130.783 289.192C266.626 289.192 376.748 179.07 376.748 43.2269L250.115 43.2269ZM250.084 40.4424C250.105 41.3669 250.115 42.2951 250.115 43.2269L376.748 43.2269C376.748 41.3383 376.727 39.4535 376.684 37.5727L250.084 40.4424ZM250.067 -249L250.067 39.0076L376.7 39.0076L376.7 -249L250.067 -249ZM132.72 -76.1032C193.718 -76.6504 245.575 -102.147 283.468 -129.606C321.359 -157.064 350.057 -189.865 366.066 -213.879L260.701 -284.122C252.489 -271.802 234.078 -250.202 209.162 -232.147C184.249 -214.093 157.601 -202.964 131.584 -202.731L132.72 -76.1032ZM130.783 -76.1057C131.084 -76.1057 131.385 -76.1045 131.686 -76.1023L132.618 -202.732C132.006 -202.736 131.394 -202.739 130.783 -202.739L130.783 -76.1057ZM-25.3514 -76.1057L130.783 -76.1057L130.783 -202.739L-25.3514 -202.739L-25.3514 -76.1057ZM-144.684 43.2269C-144.684 -22.6787 -91.2569 -76.1057 -25.3514 -76.1057L-25.3514 -202.739C-161.194 -202.739 -271.317 -92.616 -271.317 43.2269L-144.684 43.2269ZM-25.3513 162.559C-91.2569 162.559 -144.684 109.132 -144.684 43.2269L-271.317 43.2269C-271.317 179.07 -161.194 289.192 -25.3513 289.192L-25.3513 162.559ZM130.783 162.559L-25.3513 162.559L-25.3513 289.192L130.783 289.192L130.783 162.559Z" fill="#AA0125" mask="url(#path-4-inside-2)"/>
</g>
</g>
</svg>
