<svg width="160" height="54" viewBox="0 0 160 54" fill="none" xmlns="http://www.w3.org/2000/svg">
<path d="M89.7103 53.0918H88.1022L89.5771 50.3688L85.3809 41.9229H86.9889L90.3669 48.907L93.8685 41.9229H95.4671L89.7103 53.0918Z" fill="#2C2C2C"/>
<path d="M100.862 41.8274C101.614 41.8154 102.364 41.8923 103.098 42.0567C103.662 42.1724 104.19 42.4213 104.639 42.7828C105.049 43.1345 105.358 43.5897 105.534 44.1013C105.74 44.7526 105.837 45.434 105.819 46.1173C105.835 46.8036 105.739 47.4878 105.534 48.1428C105.363 48.6652 105.054 49.131 104.639 49.4899C104.192 49.8576 103.663 50.1131 103.098 50.2351C101.623 50.5408 100.101 50.5408 98.6258 50.2351C98.0603 50.1131 97.5319 49.8576 97.0843 49.4899C96.6695 49.131 96.3603 48.6652 96.1898 48.1428C95.9848 47.4878 95.8884 46.8036 95.9044 46.1173C95.8868 45.434 95.9833 44.7526 96.1898 44.1013C96.3657 43.5897 96.6745 43.1345 97.0843 42.7828C97.5334 42.4213 98.0618 42.1724 98.6258 42.0567C99.3596 41.8923 100.11 41.8154 100.862 41.8274ZM97.5029 46.1173C97.4955 46.6263 97.5563 47.1341 97.6837 47.6268C97.7809 48.013 97.9826 48.3646 98.2664 48.6428C98.5502 48.921 98.9051 49.115 99.2918 49.2033C100.325 49.4453 101.399 49.4453 102.432 49.2033C102.819 49.115 103.174 48.921 103.457 48.6428C103.741 48.3646 103.943 48.013 104.04 47.6268C104.281 46.635 104.281 45.5995 104.04 44.6077C103.932 44.2442 103.732 43.9151 103.46 43.6523C103.169 43.3855 102.815 43.198 102.432 43.1077C101.396 42.891 100.327 42.891 99.2918 43.1077C98.9085 43.198 98.5547 43.3855 98.2642 43.6523C97.9918 43.9151 97.7919 44.2442 97.6837 44.6077C97.5563 45.1005 97.4955 45.6082 97.5029 46.1173Z" fill="#2C2C2C"/>
<path d="M115.649 48.9838C115.661 49.1685 115.638 49.3539 115.579 49.5293C115.52 49.7047 115.427 49.8668 115.306 50.0061C115.152 50.1412 114.972 50.2431 114.777 50.3056C114.583 50.368 114.377 50.3897 114.174 50.3692H110.596C109.739 50.427 108.887 50.2022 108.17 49.729C107.872 49.4718 107.641 49.1466 107.495 48.7807C107.349 48.4149 107.294 48.0192 107.332 47.6271V41.8945H108.864V47.3596C108.836 47.8537 108.984 48.3417 109.283 48.7354C109.479 48.9326 109.717 49.0823 109.979 49.1734C110.241 49.2644 110.52 49.2944 110.796 49.2609H113.546C113.694 49.2722 113.842 49.2317 113.964 49.1462C114.022 49.092 114.066 49.0247 114.093 48.9498C114.119 48.875 114.127 48.795 114.117 48.7163V41.9232H115.649V48.9838Z" fill="#2C2C2C"/>
<path d="M117.479 44.971C117.443 44.5445 117.504 44.1154 117.655 43.7153C117.807 43.3152 118.045 42.9542 118.354 42.6589C119.133 42.1102 120.079 41.8501 121.028 41.9232H122.093V43.0124H121.304C120.984 42.9783 120.662 43.0107 120.355 43.1077C120.049 43.2047 119.766 43.3642 119.524 43.5761C119.144 44.0679 118.961 44.6848 119.011 45.3054V50.3692H117.479V44.971Z" fill="#2C2C2C"/>
<path d="M129.838 48.7449L129.923 48.9073C129.923 48.9742 129.99 49.0028 130.037 49.0028C130.066 49.0056 130.095 48.9973 130.118 48.9796C130.141 48.9618 130.156 48.936 130.161 48.9073C130.176 48.8563 130.198 48.8079 130.228 48.764L132.131 42.5633C132.167 42.4248 132.234 42.2962 132.326 42.1871C132.418 42.0779 132.533 41.991 132.664 41.9327C132.766 41.8863 132.875 41.8572 132.987 41.8467H133.282H133.568C133.682 41.8572 133.795 41.8863 133.901 41.9327C134.018 41.9897 134.124 42.0674 134.215 42.162C134.321 42.2763 134.399 42.4136 134.443 42.5633L136.346 48.764C136.36 48.8136 136.379 48.8617 136.403 48.9073C136.41 48.9351 136.426 48.9597 136.448 48.9771C136.471 48.9945 136.498 49.0036 136.527 49.0028C136.574 49.0028 136.612 49.0028 136.651 48.9168C136.683 48.8631 136.709 48.8053 136.727 48.7449L138.734 41.9231H140.228L137.897 49.5665C137.818 49.8325 137.667 50.0708 137.459 50.2544C137.21 50.4302 136.907 50.5145 136.603 50.4933C136.265 50.5226 135.928 50.4313 135.651 50.2353C135.456 50.0946 135.312 49.8931 135.242 49.6621L133.415 43.7193C133.384 43.6624 133.362 43.6013 133.349 43.5378C133.349 43.4709 133.349 43.4327 133.254 43.4327C133.158 43.4327 133.187 43.4327 133.158 43.5378C133.141 43.5999 133.119 43.6606 133.092 43.7193L131.312 49.6334C131.239 49.8578 131.104 50.0567 130.922 50.2067C130.646 50.4049 130.309 50.4965 129.971 50.4646C129.663 50.4913 129.356 50.4066 129.105 50.2258C128.901 50.0413 128.752 49.8029 128.677 49.5379L126.336 41.8945H127.83L129.838 48.7449Z" fill="#2C2C2C"/>
<path d="M146.64 41.923C146.983 41.8925 147.329 41.9327 147.656 42.0411C147.983 42.1495 148.285 42.3239 148.543 42.5536C148.752 42.7784 148.915 43.043 149.021 43.3317C149.127 43.6205 149.175 43.9276 149.161 44.2351V49.1269C149.176 49.3007 149.153 49.4756 149.096 49.6402C149.039 49.8049 148.947 49.9555 148.828 50.0823C148.487 50.3302 148.067 50.4426 147.648 50.3976H143.338C142.995 50.4276 142.649 50.3871 142.322 50.2787C141.995 50.1703 141.693 49.9962 141.435 49.767C141.052 49.2038 140.848 48.5379 140.848 47.8562C140.848 47.1745 141.052 46.5086 141.435 45.9453C141.688 45.7077 141.989 45.5261 142.316 45.4126C142.644 45.299 142.992 45.2559 143.338 45.2861H147.629V44.3307C147.639 44.0094 147.523 43.6971 147.306 43.4612C147.164 43.336 146.997 43.2417 146.817 43.1841C146.637 43.1266 146.447 43.1071 146.259 43.1268H141.501V41.923H146.64ZM143.68 46.3084C143.502 46.2869 143.32 46.3116 143.154 46.3801C142.987 46.4487 142.841 46.5588 142.729 46.7001C142.566 47.04 142.482 47.4122 142.482 47.7893C142.482 48.1664 142.566 48.5387 142.729 48.8785C142.838 49.0247 142.983 49.1396 143.15 49.2117C143.317 49.2838 143.5 49.3106 143.68 49.2893H147.163C147.286 49.2732 147.4 49.216 147.487 49.1269C147.529 49.0885 147.563 49.0414 147.586 48.9886C147.609 48.9359 147.621 48.8788 147.62 48.8212V46.3084H143.68Z" fill="#2C2C2C"/>
<path d="M154.214 53.0918H152.606L154.081 50.3688L149.885 41.9229H151.493L154.871 48.907L158.372 41.9229H159.981L154.214 53.0918Z" fill="#2C2C2C"/>
<path d="M37.0146 6.63086H34.3503C33.8456 6.63086 33.3616 6.83218 33.0047 7.19054C32.6478 7.54889 32.4473 8.03492 32.4473 8.54171V28.3764C32.4473 28.8832 32.6478 29.3692 33.0047 29.7276C33.3616 30.0859 33.8456 30.2873 34.3503 30.2873H37.0146C37.5193 30.2873 38.0034 30.0859 38.3603 29.7276C38.7172 29.3692 38.9177 28.8832 38.9177 28.3764V8.59904C38.9177 8.09225 38.7172 7.60622 38.3603 7.24786C38.0034 6.88951 37.5193 6.68818 37.0146 6.68818" fill="#E70031"/>
<path d="M27.4327 6.63086C26.6307 6.63111 25.8456 6.86266 25.1709 7.29795C24.4962 7.73325 23.9601 8.35397 23.6266 9.08631L16.5757 24.1916C16.4044 24.5451 16.0714 25.147 15.7954 25.147C15.5195 25.147 15.1865 24.5642 15.0152 24.1916L7.88821 9.08631C7.55465 8.35397 7.01862 7.73325 6.34388 7.29795C5.66914 6.86266 4.88408 6.63111 4.08208 6.63086H0L11.2376 28.4719C12.3699 30.6217 14.6251 30.5739 15.7954 30.5739C17.4131 30.5739 19.2971 30.4879 20.3057 28.4719L31.5338 6.63086H27.4327Z" fill="#E70031"/>
<path d="M151.578 2.99972C151.578 2.49293 151.377 2.0069 151.02 1.64854C150.664 1.29019 150.18 1.08887 149.675 1.08887H147.01C146.506 1.08887 146.022 1.29019 145.665 1.64854C145.308 2.0069 145.107 2.49293 145.107 2.99972V22.5764C145.107 25.5765 146.164 27.3536 148.057 28.567C149.951 29.7804 152.006 30.3059 155.955 30.3059H158.096C158.601 30.3059 159.085 30.1045 159.442 29.7462C159.798 29.3878 159.999 28.9018 159.999 28.395V26.2835H158.381C157.211 26.2835 154.765 26.2835 153.319 25.2612C151.416 24.0096 151.597 21.7739 151.597 20.1688L151.578 2.99972Z" fill="#E70031"/>
<path d="M109.912 26.2835C108.741 26.2835 106.296 26.2835 104.85 25.2612C102.947 24.0096 103.127 21.7739 103.127 20.1688V10.6145H109.427C109.931 10.6145 110.415 10.4132 110.772 10.0548C111.129 9.69645 111.33 9.21042 111.33 8.70363V6.63035H103.099V2.99972C103.099 2.49293 102.898 2.0069 102.541 1.64854C102.185 1.29019 101.701 1.08887 101.196 1.08887H98.5315C98.0268 1.08887 97.5427 1.29019 97.1858 1.64854C96.8289 2.0069 96.6284 2.49293 96.6284 2.99972V6.63035H83.05V2.99972C83.05 2.49293 82.8495 2.0069 82.4927 1.64854C82.1358 1.29019 81.6517 1.08887 81.147 1.08887H78.4827C77.978 1.08887 77.4939 1.29019 77.137 1.64854C76.7801 2.0069 76.5796 2.49293 76.5796 2.99972V6.63035H72.4785V8.72274C72.4785 9.22953 72.679 9.71556 73.0359 10.0739C73.3928 10.4323 73.8769 10.6336 74.3816 10.6336H76.5225V22.5764C76.5225 25.5765 77.5787 27.3536 79.4723 28.567C81.3658 29.7804 83.4211 30.3059 87.37 30.3059H89.511C90.0157 30.3059 90.4997 30.1045 90.8566 29.7462C91.2135 29.3878 91.414 28.9018 91.414 28.395V26.2835H89.7964C88.626 26.2835 86.1806 26.2835 84.7343 25.2612C82.8312 24.0096 83.012 21.7739 83.012 20.1688V10.6145H96.5809V22.5764C96.5809 25.5765 97.6371 27.3536 99.5306 28.567C101.424 29.7804 103.479 30.3059 107.428 30.3059H109.569C110.074 30.3059 110.558 30.1045 110.915 29.7462C111.272 29.3878 111.472 28.9018 111.472 28.395V26.2835H109.912Z" fill="#E70031"/>
<path d="M70.0886 28.3762V26.2838H55.6824C53.2846 26.2838 50.5632 26.0163 49.7258 23.4749C49.4692 22.4047 49.3383 21.3081 49.3357 20.2073H66.4633C67.5901 20.2882 68.7099 19.9742 69.6319 19.3188C70.1267 18.8746 70.5104 18.3196 70.7518 17.6988C70.9931 17.078 71.0854 16.4088 71.0211 15.7455C71.0211 12.7454 70.298 9.80272 66.8534 8.10206C64.1321 6.68802 60.5733 6.53516 57.0907 6.53516C54.3027 6.53516 49.2976 6.53516 46.072 8.77086C42.8463 11.0066 42.5703 14.2646 42.5703 18.6882C42.5703 21.822 42.7321 25.08 44.6827 27.287C47.1282 30.0578 50.6869 30.2775 53.6937 30.2775H68.1665C68.6713 30.2775 69.1553 30.0762 69.5122 29.7179C69.8691 29.3595 70.0696 28.8735 70.0696 28.3667L70.0886 28.3762ZM64.3033 14.7996C64.3033 15.4302 64.132 16.185 62.857 16.185H53.5986C51.2483 16.185 49.3357 17.2742 49.3357 18.6022V16.185C49.3928 14.6276 49.3357 13.3187 50.6774 12.1244C52.4567 10.5193 55.121 10.5575 56.8433 10.5575C58.5656 10.5575 60.7922 10.6531 62.4098 11.6371C62.9674 11.9597 63.4344 12.419 63.7672 12.9721C64.1 13.5252 64.2878 14.1539 64.3128 14.7996" fill="#E70031"/>
<path d="M140.455 28.3762V26.2838H126.049C123.651 26.2838 120.93 26.0163 120.092 23.4749C119.836 22.4047 119.705 21.3081 119.702 20.2073H136.83C137.956 20.2874 139.076 19.9735 139.998 19.3188C140.493 18.8746 140.877 18.3196 141.118 17.6988C141.36 17.078 141.452 16.4088 141.388 15.7455C141.388 12.7454 140.664 9.80272 137.21 8.10206C134.499 6.68802 130.94 6.53516 127.505 6.53516C124.717 6.53516 119.712 6.53516 116.486 8.77086C113.26 11.0066 112.984 14.2646 112.984 18.6882C112.984 21.822 113.146 25.08 115.097 27.287C117.542 30.0578 121.101 30.2775 124.108 30.2775H138.543C139.047 30.2775 139.531 30.0762 139.888 29.7179C140.245 29.3595 140.446 28.8735 140.446 28.3667L140.455 28.3762ZM134.66 14.7901C134.66 15.4206 134.489 16.1754 133.214 16.1754H123.956C121.605 16.1754 119.693 17.2646 119.693 18.5927V16.185C119.75 14.6276 119.693 13.3187 121.025 12.1244C122.804 10.5193 125.478 10.5575 127.2 10.5575C128.923 10.5575 131.149 10.6531 132.767 11.6371C133.324 11.9597 133.791 12.419 134.124 12.9721C134.457 13.5252 134.645 14.1539 134.67 14.7996" fill="#E70031"/>
<path d="M37.0148 0H34.3505C33.8458 0 33.3618 0.201322 33.0049 0.559677C32.648 0.918032 32.4475 1.40407 32.4475 1.91086V6.90774C32.4284 5.73257 33.7225 4.39497 35.6827 4.39497H37.0148C37.5196 4.39497 38.0036 4.19365 38.3605 3.83529C38.7174 3.47694 38.9179 2.9909 38.9179 2.48411V1.91086C38.9179 1.40407 38.7174 0.918032 38.3605 0.559677C38.0036 0.201322 37.5196 0 37.0148 0" fill="#E70031"/>
</svg>
