<svg width="516" height="559" viewBox="0 0 516 559" fill="none" xmlns="http://www.w3.org/2000/svg">
<path d="M324.339 534.865C186.515 534.865 74.7865 424.821 74.7865 289.076C74.7865 153.33 186.515 43.2861 324.339 43.2861C462.162 43.2861 573.891 153.33 573.891 289.076C573.891 424.821 462.162 534.865 324.339 534.865Z" fill="#F8F6F6"/>
<path d="M73.5714 293.486C76.0309 429.69 190.55 538.518 328.826 536.084C467.103 533.649 577.486 420.871 575.135 284.667C572.784 148.463 458.157 39.6624 319.88 42.07C181.603 44.4775 71.1118 157.282 73.5714 293.486ZM572.567 284.722C575 419.519 465.643 531.16 328.772 533.595C191.901 536.03 78.5716 428.284 76.139 293.486C73.7065 158.689 183.063 47.0474 319.907 44.6128C456.751 42.1782 570.135 149.924 572.567 284.722Z" fill="#C7C7C7"/>
<path d="M80.1113 231.403L82.8141 229.942C89.7604 226.047 95.6795 224.343 100.409 224.857C101.823 225.069 103.267 224.956 104.63 224.524C105.993 224.093 107.24 223.355 108.275 222.368C113.68 217.282 113.545 206.137 113.437 202.972C131.438 192.151 146.925 208.193 147.601 208.896L150.709 212.17L149.79 207.76C149.115 204.589 149.676 201.28 151.358 198.509C152.143 197.59 153.122 196.858 154.226 196.366C155.33 195.875 156.529 195.636 157.736 195.668C158.803 195.514 159.89 195.615 160.91 195.963C161.929 196.311 162.852 196.896 163.602 197.67C166.683 201.187 165.25 208.22 165.223 208.301L164.926 209.762H166.44C168.278 210.039 170.023 210.75 171.532 211.837C173.041 212.924 174.269 214.355 175.116 216.011C176.903 219.093 177.878 222.58 177.949 226.143C178.02 229.707 177.185 233.229 175.521 236.381C169.007 249.501 177.035 261.16 179.224 263.973C176.285 269.806 175.38 276.455 176.654 282.862C177.927 289.27 181.306 295.066 186.251 299.329C194.117 320.781 210.928 318.509 214.955 317.616C220.361 323.892 231.767 323.459 251.308 316.318C265.525 311.151 271.58 314.126 276.445 316.507C279.634 318.076 282.661 319.564 286.85 317.778C288.085 317.315 289.206 316.592 290.138 315.659C291.071 314.726 291.793 313.604 292.256 312.368C293.279 308.772 292.962 304.927 291.364 301.548L308.662 282.395V281.854C308.662 281.313 307.77 267.787 324.177 259.78C340.583 251.773 338.231 237.76 335.826 225.533C335.582 224.343 335.339 223.125 335.123 221.962C332.853 209.464 346.772 201.674 346.907 201.592L347.718 201.16L347.529 200.24C347.529 200.023 343.096 178.139 346.88 167.481C347.467 166.23 347.716 164.848 347.602 163.471C347.488 162.095 347.016 160.772 346.232 159.636C342.772 155.118 333.934 155.578 333.555 155.605H332.231V156.903C332.497 159.104 331.885 161.32 330.528 163.071C329.875 163.569 329.111 163.902 328.302 164.043C327.494 164.184 326.663 164.129 325.879 163.883C319.42 162.638 319.095 149.708 319.501 144.947V144.054L318.663 143.702C318.528 143.702 305.851 138.13 305.689 129.609C305.653 128.865 305.782 128.122 306.067 127.435C306.352 126.747 306.786 126.131 307.338 125.632C311.284 121.872 320.717 122.386 320.852 122.386L326.906 122.737L321.501 120.032C321.014 119.789 309.257 113.405 314.284 92.2505C316.446 83.2153 322.258 78.3731 329.852 79.2658C335.934 79.9691 342.313 84.6761 342.204 91.4119V91.7365C342.394 102.557 355.205 108.86 361.935 111.403L350.88 114.46L350.61 114.757C349.589 116.094 348.894 117.651 348.58 119.304C348.265 120.957 348.341 122.661 348.799 124.279C350.583 130.609 357.881 136.02 370.422 140.51C378.179 143.215 382.72 146.245 384.314 149.816C385.909 153.387 384.314 157.931 382.287 162.53C380.26 167.129 378.233 171.998 379.936 176.786C380.545 178.158 380.844 179.648 380.811 181.149C380.778 182.65 380.415 184.126 379.747 185.47C378.104 187.833 375.635 189.494 372.827 190.123L371.476 190.393L371.854 191.692C371.854 191.692 373.692 198.211 370.719 202.188C369.737 203.307 368.507 204.182 367.128 204.741C365.748 205.3 364.257 205.528 362.773 205.407C347.124 205.677 344.502 221.151 344.475 221.286V222.368L345.637 222.611C345.907 222.611 352.799 224.478 354.232 237.76C355.097 246.038 360.476 249.609 365.368 249.446C367.866 249.384 370.242 248.353 371.996 246.572C373.751 244.791 374.746 242.398 374.773 239.897C374.963 235.028 379.476 233.432 384.233 231.782C388.99 230.132 393.18 228.644 392.72 223.964C392.099 217.472 385.801 214.253 382.477 212.981L385.423 209.951C387.11 208.224 389.368 207.17 391.775 206.986C394.182 206.802 396.574 207.5 398.504 208.95L420.289 225.398L417.857 220.556C416.251 216.98 415.387 213.115 415.317 209.195C415.248 205.275 415.974 201.382 417.451 197.751C419.694 192.855 424.965 190.61 430.073 188.418C434.533 186.525 438.749 184.712 440.128 181.196C440.504 180.05 440.64 178.839 440.528 177.639C440.417 176.438 440.06 175.273 439.479 174.216C433.506 161.205 435.56 149.437 444.885 143.513C446.872 142.258 449.26 141.8 451.57 142.232C453.881 142.663 455.943 143.951 457.345 145.839C459.723 148.977 460.399 153.955 455.183 158.337C453.422 159.701 452.111 161.561 451.417 163.678C450.723 165.794 450.679 168.071 451.29 170.213C451.889 172.415 453.085 174.41 454.744 175.975C456.404 177.541 458.464 178.617 460.696 179.086C462.832 179.364 465.002 178.998 466.928 178.034C468.854 177.07 470.449 175.552 471.508 173.675C475.535 167.913 481.616 168.265 487.508 168.644C491.833 168.914 495.887 169.185 498.644 166.777C499.616 165.787 500.378 164.61 500.884 163.318C501.39 162.026 501.63 160.644 501.59 159.257C502.374 145.488 488.995 140.835 482.427 139.374C493.016 133.906 505.135 132.162 516.834 134.424L520.186 134.965L518.023 132.26C480.461 87.3716 428.454 56.9748 370.935 46.29L370.26 46.1548L369.773 46.6417C365.168 51.4638 359.318 54.914 352.872 56.6092C346.426 58.3045 339.637 58.1784 333.258 56.245C327.123 54.5948 321.96 50.0773 317.987 42.7193L317.609 42.043H316.798C205.225 45.235 108.248 121.872 80.9762 228.4L80.1113 231.403ZM110.815 203.892C110.815 207.463 110.599 216.579 106.41 220.556C105.644 221.281 104.721 221.82 103.713 222.13C102.705 222.44 101.639 222.512 100.599 222.341C94.8228 222.083 89.0933 223.481 84.0844 226.372C112.032 122.629 206.847 48.2107 315.987 44.7211C317.646 48.0513 319.962 51.0101 322.796 53.4187C325.63 55.8272 328.922 57.6354 332.474 58.7337C339.19 60.7049 346.312 60.8361 353.096 59.1136C359.88 57.3911 366.078 53.8781 371.044 48.9411C426.592 59.4387 476.93 88.5113 513.807 131.394C501.37 129.638 488.712 132.288 478.021 138.887L474.886 140.862L478.589 141.214C479.454 141.214 499.806 143.459 498.914 159.068C498.999 161.187 498.252 163.255 496.833 164.83C494.887 166.534 491.427 166.317 487.562 166.074C481.589 165.695 474.048 165.235 469.264 172.215C468.478 173.64 467.29 174.803 465.848 175.558C464.406 176.313 462.775 176.627 461.156 176.462C459.418 176.089 457.817 175.246 456.525 174.025C455.233 172.804 454.302 171.251 453.831 169.536C453.31 167.853 453.318 166.049 453.855 164.37C454.392 162.692 455.431 161.218 456.831 160.15C463.399 154.577 462.237 148.085 459.372 144.243C457.577 141.835 454.938 140.196 451.985 139.654C449.033 139.112 445.984 139.708 443.452 141.322C433.073 147.949 430.641 160.934 437.155 175.19C437.593 175.943 437.874 176.777 437.981 177.642C438.088 178.507 438.018 179.385 437.776 180.222C436.776 182.738 433.046 184.334 429.1 186.011C423.695 188.283 417.775 190.853 415.127 196.615C412.271 203.209 411.877 210.611 414.019 217.472L400.072 206.949C397.64 205.12 394.628 204.238 391.594 204.466C388.561 204.695 385.715 206.02 383.585 208.193L377.747 214.253L379.855 214.794C379.855 214.794 389.531 217.336 390.207 224.235C390.45 226.94 387.801 227.886 383.395 229.428C378.557 231.133 372.584 233.27 372.233 239.843C372.247 241.704 371.53 243.497 370.235 244.833C368.941 246.169 367.173 246.942 365.314 246.985C361.854 246.985 357.556 244.685 356.8 237.544C355.529 225.56 349.934 221.746 347.421 220.637C348.164 217.049 350.116 213.826 352.95 211.506C355.784 209.187 359.328 207.912 362.989 207.895C364.875 208.021 366.763 207.7 368.501 206.957C370.239 206.214 371.777 205.071 372.99 203.621C374.034 201.934 374.732 200.056 375.043 198.096C375.354 196.136 375.272 194.133 374.8 192.206C377.824 191.275 380.426 189.313 382.152 186.66C383.031 185.003 383.522 183.168 383.588 181.293C383.653 179.419 383.292 177.554 382.531 175.839C381.179 171.944 382.963 167.724 384.828 163.396C386.909 158.554 389.044 153.549 386.855 148.653C384.936 144.406 379.909 140.916 371.476 137.994C356.8 132.909 352.556 127.336 351.367 123.576C351.089 122.435 351.054 121.248 351.263 120.092C351.473 118.937 351.922 117.838 352.583 116.867L371.26 111.7L366.827 110.51C366.611 110.51 345.205 104.451 344.988 91.8717C344.988 91.6824 344.988 91.493 344.988 91.3037C344.988 83.3505 337.501 77.7779 330.393 76.9393C323.285 76.1008 314.96 79.6445 312.041 91.8447C308.176 108.076 313.636 116.489 317.447 120.141C313.249 120.146 309.165 121.502 305.797 124.009C304.999 124.753 304.369 125.659 303.949 126.667C303.53 127.675 303.33 128.761 303.365 129.852C303.527 138.725 313.987 144.379 317.068 145.839C316.852 149.762 316.663 164.965 325.555 166.696C326.735 167.018 327.975 167.056 329.173 166.807C330.371 166.558 331.493 166.028 332.447 165.262C334.171 163.378 335.084 160.89 334.988 158.337C337.691 158.337 342.367 158.986 344.204 161.421C344.725 162.217 345.026 163.136 345.079 164.086C345.131 165.036 344.932 165.983 344.502 166.831C340.853 177.003 344.069 195.722 344.88 200.051C341.664 202.052 330.312 210.06 332.636 222.584C332.853 223.775 333.096 224.992 333.312 226.209C335.772 238.626 338.096 250.366 323.068 257.697C307.014 265.542 306.122 278.797 306.122 281.692L288.391 301.304L288.797 302.062C290.278 305.005 290.679 308.375 289.932 311.584C289.569 312.497 289.019 313.323 288.315 314.008C287.612 314.693 286.772 315.222 285.85 315.56C282.769 316.859 280.715 315.858 277.607 314.316C272.58 311.854 265.687 308.473 250.443 314.045C225.875 323.026 219.28 319.185 216.469 315.506L215.928 314.803L215.063 315.073C214.307 315.317 196.576 320.484 188.576 298.247L188.441 297.896L188.143 297.679C187.495 297.165 172.197 285.236 181.927 264.406L182.278 263.648L181.711 263.026C181.278 262.539 171.17 251.042 177.846 237.571C179.699 234.043 180.624 230.101 180.534 226.116C180.444 222.131 179.342 218.234 177.332 214.794C176.344 213.01 175.006 211.443 173.399 210.188C171.793 208.933 169.949 208.016 167.98 207.49C168.305 204.947 168.548 199.374 165.575 196.047C164.57 194.975 163.327 194.156 161.946 193.658C160.564 193.159 159.085 192.996 157.628 193.179C156.049 193.174 154.487 193.515 153.054 194.179C151.62 194.843 150.349 195.813 149.331 197.021C147.697 199.342 146.871 202.137 146.979 204.974C141.384 200.429 127.14 191.448 111.464 201.268L110.815 201.674V202.431C110.815 202.431 110.788 202.972 110.815 203.892Z" fill="#C7C7C7"/>
<path d="M155.683 457.094C155.715 458.172 155.869 459.243 156.143 460.286C157.792 466.399 163.684 471.783 173.63 476.327C185.793 481.738 189.117 489.582 187.144 494.83L186.739 495.804L187.631 496.345C229.626 523.257 278.646 537.113 328.502 536.165C338.138 535.988 347.757 535.275 357.314 534.028L358.449 533.893V532.757C358.449 529.808 360.477 526.968 364.585 524.289C368.693 521.611 370.531 519.637 369.855 518.041C369.585 517.418 368.747 515.498 360.071 517.445C360.071 517.445 344.26 518.365 337.34 508.708C330.07 498.564 299.825 499.05 294.852 499.213C292.419 496.372 280.067 483.225 260.958 485.525C258.421 485.994 255.816 485.952 253.295 485.399C250.775 484.846 248.39 483.794 246.282 482.306C242.855 479.448 240.587 475.437 239.903 471.025V470.132L238.984 469.943C238.633 469.943 201.523 462.152 203.848 437.481L204.01 435.885L202.415 436.102C202.199 436.102 182.387 438.672 175.765 423.874L175.36 423.009H174.414C173.622 423.149 172.871 423.465 172.217 423.933C171.562 424.401 171.02 425.01 170.63 425.714C169.035 428.419 169.333 432.477 171.495 437.806C172.027 438.761 172.307 439.837 172.307 440.93C172.307 442.024 172.027 443.1 171.495 444.055C169.035 447.923 161.548 449.195 158.873 449.465H157.981L157.629 449.952C156.287 452.087 155.61 454.573 155.683 457.094ZM190.171 491.395C190.171 485.985 186.09 479.195 174.711 474.028C165.63 469.916 160.089 464.939 158.629 459.691C157.894 457.05 158.214 454.227 159.521 451.819C161.981 451.575 170.333 450.358 173.495 445.407C174.26 444.124 174.69 442.668 174.747 441.175C174.803 439.681 174.485 438.197 173.819 436.859C171.522 431.232 171.981 428.419 172.765 427.039C173.017 426.547 173.401 426.135 173.873 425.849C180.495 438.726 196.145 438.888 201.145 438.617C200.28 462.288 231.768 470.782 237.471 472.134C238.384 476.867 240.916 481.134 244.633 484.199C247.016 485.899 249.713 487.105 252.568 487.746C255.422 488.387 258.376 488.45 261.256 487.932C280.716 485.606 293.095 501.025 293.23 501.188L293.636 501.701H294.284C294.636 501.701 328.259 500.403 335.205 510.087C342.989 520.908 359.693 519.934 360.422 519.88C362.608 519.349 364.85 519.086 367.098 519.096C365.913 520.264 364.587 521.282 363.152 522.125C358.72 524.993 356.314 528.185 355.936 531.62C346.815 532.771 337.639 533.43 328.448 533.595C279.411 534.56 231.173 521.07 189.739 494.803C190.053 493.695 190.199 492.546 190.171 491.395Z" fill="#C7C7C7"/>
<path d="M446.209 486.85L448.372 486.309C462.642 482.792 465.616 484.659 466.264 485.632C466.913 486.606 465.562 489.609 464.345 491.043L458.642 497.887L466.102 492.882C499.778 470.34 527.36 439.812 546.393 404.017C565.425 368.222 575.318 328.272 575.188 287.724V279.987L572.729 287.399C571.227 292.709 569.18 297.85 566.62 302.738C566.631 302.621 566.631 302.503 566.62 302.386C564.999 287.967 557.566 287.94 557.268 287.94H555.241L556.133 289.726C557.323 292.133 559.836 301.25 542.619 317.535C535.619 324.135 532.484 329.789 533.267 334.388C533.492 335.545 533.979 336.634 534.691 337.572C535.404 338.51 536.322 339.272 537.376 339.798L538.132 340.15L549.836 330.032C549.91 329.966 550.006 329.929 550.106 329.929C550.206 329.929 550.302 329.966 550.376 330.032C550.436 330.105 550.468 330.196 550.468 330.289C550.468 330.383 550.436 330.474 550.376 330.546L545.133 343.693L547.511 343.125C549.136 342.538 550.926 342.615 552.494 343.339C554.062 344.063 555.282 345.376 555.89 346.994C559.187 354.325 555.89 368.256 547.106 374.045C540.676 377.943 535.664 383.803 532.808 390.763C531.348 387.665 530.861 384.197 531.411 380.816C531.961 377.435 533.522 374.301 535.889 371.827C542.403 364.658 548.592 355.001 546.7 349.482C546.33 348.541 545.702 347.723 544.89 347.12C544.078 346.518 543.113 346.155 542.106 346.074C539.403 345.668 535.457 346.642 532.159 353.513C532.034 353.771 531.838 353.987 531.594 354.136C531.349 354.285 531.067 354.36 530.781 354.352C530.5 354.35 530.227 354.263 529.995 354.104C529.764 353.945 529.586 353.72 529.483 353.459L525.321 344.099L524.24 347.4C523.003 352.136 520.183 356.305 516.249 359.214C512.315 362.123 507.504 363.595 502.617 363.387C498.009 360.199 492.393 358.813 486.833 359.492C484.496 359.993 482.295 360.991 480.378 362.419C478.461 363.848 476.874 365.672 475.724 367.769C472.129 373.558 470.967 378.59 472.319 383.026C472.797 384.537 473.568 385.938 474.588 387.15C475.609 388.361 476.858 389.359 478.265 390.087L480.022 390.898V388.978C480.202 387.111 481.081 385.381 482.481 384.135C485.232 381.987 488.72 381.015 492.184 381.43C494.127 381.378 496.029 381.99 497.577 383.165C499.124 384.341 500.226 386.009 500.698 387.896C501.442 390.521 501.414 393.305 500.619 395.914C499.823 398.524 498.293 400.849 496.212 402.612C489.752 407.021 484.049 399.663 483.806 399.338L483.022 398.31L481.995 399.122C470.237 408.346 477.724 419.302 477.805 419.41L478.184 419.951L487.076 419.816C487.662 420.784 488.04 421.865 488.184 422.987C488.328 424.11 488.236 425.251 487.914 426.336C486.265 431.394 479.562 434.451 479.508 434.451L476.535 435.695L479.589 436.778C480.396 436.96 481.131 437.379 481.699 437.981C482.267 438.584 482.643 439.342 482.779 440.159C483.319 444.163 478.508 451.845 466.562 460.042C457.519 465.967 450.605 474.63 446.831 484.767L446.209 486.85ZM469.048 486.444C469.052 485.678 468.836 484.927 468.427 484.28C466.453 481.25 460.615 480.926 450.128 483.306C454.04 474.751 460.243 467.448 468.048 462.206C479.346 454.496 486.13 445.732 485.373 439.943C485.267 439.094 484.984 438.277 484.542 437.545C484.099 436.813 483.508 436.183 482.806 435.695C486.24 433.881 488.935 430.925 490.428 427.337C490.896 425.786 491.011 424.149 490.763 422.548C490.515 420.946 489.911 419.421 488.995 418.085L488.617 417.463L479.643 417.625C478.163 415.112 477.656 412.142 478.219 409.28C478.782 406.417 480.375 403.861 482.697 402.098C485.671 405.344 491.617 409.077 497.752 404.803C500.258 402.735 502.105 399.979 503.065 396.874C504.026 393.769 504.058 390.451 503.158 387.327C502.517 384.947 501.111 382.844 499.157 381.343C497.203 379.842 494.81 379.027 492.347 379.023C490.288 378.781 488.201 378.947 486.207 379.514C484.213 380.08 482.349 381.035 480.724 382.323C479.385 383.558 478.396 385.126 477.859 386.868C476.331 385.682 475.2 384.059 474.616 382.215C473.508 378.59 474.616 374.099 477.778 369.041C478.75 367.251 480.092 365.688 481.714 364.457C483.335 363.226 485.2 362.354 487.184 361.899C494.266 360.628 501.239 365.74 501.239 365.74L501.509 365.93H501.86C506.836 366.21 511.778 364.955 516.018 362.332C520.257 359.71 523.59 355.848 525.564 351.268L526.943 354.622C527.236 355.345 527.737 355.964 528.381 356.402C529.026 356.84 529.785 357.077 530.565 357.084C531.344 357.113 532.115 356.913 532.782 356.51C533.45 356.106 533.985 355.516 534.321 354.812C535.754 351.782 538.186 348.292 541.565 348.779C542.144 348.743 542.72 348.894 543.207 349.211C543.694 349.528 544.066 349.993 544.268 350.537C545.592 354.135 541.403 362.278 534.078 370.366C523.51 382.079 532.186 394.956 532.267 395.091L534.267 397.986L534.619 394.496C534.619 394.496 535.727 384.893 548.646 376.236C558.566 369.609 562.161 354.325 558.35 346.074C557.651 344.29 556.401 342.776 554.781 341.754C553.162 340.732 551.259 340.255 549.349 340.393L552.593 331.547C552.846 330.931 552.877 330.245 552.679 329.608C552.482 328.971 552.069 328.423 551.511 328.058C550.964 327.665 550.3 327.47 549.627 327.504C548.954 327.538 548.313 327.8 547.809 328.247L537.457 337.201C536.925 336.819 536.475 336.336 536.132 335.779C535.788 335.221 535.559 334.602 535.457 333.955C535.051 331.412 536.213 326.813 544.079 319.374C558.755 305.551 560.052 296.245 559.079 291.322C560.782 292.566 563.025 295.515 563.836 302.656C563.836 303.603 564.188 305.794 565.918 305.984C567.053 305.984 568.431 306.227 572.404 295.596C571.294 333.508 561.349 370.636 543.362 404.019C525.375 437.403 499.844 466.119 468.805 487.878C468.941 487.411 469.023 486.93 469.048 486.444Z" fill="#C7C7C7"/>
<path d="M501.239 303.874V305.794C501.26 309.338 502.482 312.77 504.707 315.528C506.931 318.285 510.026 320.204 513.483 320.97C521.159 322.242 528.376 316.507 532.754 305.686C541.89 282.99 555.485 273.224 555.62 273.008L556.539 272.359L555.998 271.385C548.295 257.291 549.89 237.057 549.89 236.867V235.163L532.808 238.842L532.511 239.248C523.54 253.19 518.035 269.079 516.456 285.587C515.834 294.92 513.429 301.169 509.483 303.657C508.492 304.284 507.377 304.689 506.216 304.843C505.054 304.997 503.872 304.897 502.753 304.55L501.239 303.874ZM553.215 271.628C549.971 274.334 538.511 284.451 530.349 304.739C526.457 314.397 520.294 319.537 513.861 318.482C511.254 317.889 508.897 316.496 507.119 314.498C505.341 312.5 504.23 309.997 503.942 307.336C506.407 307.684 508.916 307.148 511.023 305.822C515.78 302.819 518.51 296.083 519.132 285.776C520.656 269.881 525.906 254.569 534.457 241.087L547.187 238.382C547.025 243.495 546.917 259.293 553.215 271.628Z" fill="#C7C7C7"/>
<path d="M422.398 211.196C422.507 215.182 423.172 219.133 424.371 222.936L425.236 225.641L426.668 223.288C428.899 219.76 432.264 217.098 436.209 215.74C437.544 215.452 438.924 215.435 440.266 215.69C441.608 215.946 442.884 216.469 444.02 217.228C446.616 218.841 449.326 220.26 452.129 221.475C453.125 221.89 454.204 222.072 455.281 222.007C456.358 221.941 457.407 221.63 458.345 221.096C459.293 220.565 460.102 219.818 460.708 218.916C461.314 218.014 461.699 216.981 461.832 215.903V215.416C462.016 213.813 461.632 212.196 460.748 210.847C459.865 209.497 458.536 208.501 456.994 208.031C453.428 206.569 450.419 204.011 448.399 200.727C445.291 196.723 442.047 192.611 433.155 194.532C431.374 194.88 429.691 195.616 428.224 196.686C426.758 197.756 425.544 199.136 424.668 200.727C423.005 203.956 422.222 207.567 422.398 211.196ZM426.128 219.663C425.155 215.551 423.776 207.273 426.884 201.863C427.604 200.626 428.583 199.559 429.754 198.737C430.926 197.915 432.261 197.357 433.669 197.102C440.966 195.479 443.21 198.373 446.291 202.512C448.654 206.131 452.096 208.914 456.129 210.465C457.117 210.762 457.971 211.394 458.543 212.254C459.116 213.113 459.371 214.145 459.264 215.172V215.659C459.174 216.346 458.924 217.003 458.534 217.576C458.145 218.149 457.627 218.623 457.021 218.959C456.432 219.305 455.771 219.506 455.09 219.549C454.41 219.591 453.728 219.473 453.102 219.203C450.428 218.044 447.844 216.688 445.372 215.145C443.947 214.198 442.345 213.552 440.663 213.245C438.981 212.938 437.254 212.977 435.588 213.36C431.855 214.423 428.548 216.627 426.128 219.663Z" fill="#C7C7C7"/>
<path d="M432.586 231.322C432.416 232.917 432.736 234.526 433.502 235.935C434.268 237.344 435.445 238.486 436.875 239.209C438.306 239.933 439.923 240.203 441.511 239.984C443.098 239.765 444.582 239.068 445.764 237.984C446.946 236.901 447.771 235.483 448.128 233.919C448.485 232.355 448.358 230.719 447.763 229.23C447.169 227.74 446.136 226.466 444.8 225.579C443.465 224.691 441.892 224.232 440.289 224.261C438.337 224.195 436.437 224.897 434.997 226.217C433.557 227.537 432.691 229.37 432.586 231.322ZM445.695 231.105C445.917 232.195 445.798 233.326 445.355 234.345C444.911 235.365 444.165 236.223 443.217 236.803C442.269 237.382 441.166 237.656 440.057 237.586C438.949 237.516 437.889 237.105 437.021 236.411C436.154 235.716 435.521 234.771 435.21 233.704C434.898 232.637 434.922 231.5 435.279 230.447C435.637 229.394 436.309 228.477 437.205 227.82C438.102 227.164 439.179 226.799 440.289 226.777C440.929 226.702 441.577 226.755 442.196 226.932C442.815 227.109 443.393 227.408 443.895 227.811C444.398 228.213 444.816 228.712 445.125 229.277C445.434 229.843 445.628 230.464 445.695 231.105Z" fill="#C7C7C7"/>
<path d="M367.963 98.9592C368.036 100.632 368.61 102.244 369.612 103.585C375.207 111.7 391.234 107.751 400.478 101.8L402.613 100.447L400.235 99.5543C400.235 99.5543 394.559 97.4443 393.505 93.5218C393.297 92.3304 393.389 91.106 393.771 89.9587C394.153 88.8114 394.814 87.777 395.694 86.9483C396.615 86.1597 397.214 85.0602 397.379 83.8584C397.543 82.6566 397.261 81.4362 396.586 80.4289C394.262 77.2639 387.586 76.3983 382.018 78.5083C379.49 79.2851 377.305 80.9074 375.829 83.1036C374.353 85.2998 373.675 87.9368 373.909 90.5732C371.278 91.9259 369.244 94.2118 368.206 96.9844C368.017 97.6249 367.935 98.292 367.963 98.9592ZM397.072 100.88C387.721 106.047 375.666 107.859 371.72 102.151C371.211 101.534 370.854 100.807 370.676 100.028C370.497 99.248 370.503 98.4376 370.693 97.6607C371.698 95.3717 373.52 93.5395 375.801 92.5209L376.639 92.1422V91.2495C376.286 89.0473 376.74 86.7917 377.917 84.8978C379.094 83.004 380.915 81.5995 383.045 80.9429C387.802 79.1305 393.18 80.0231 394.613 81.9709C395.262 82.8636 394.991 84.0268 393.829 85.4334C392.675 86.5638 391.823 87.9659 391.351 89.5114C390.878 91.0569 390.801 92.6962 391.126 94.2793C392.199 97.1551 394.325 99.5148 397.072 100.88Z" fill="#C7C7C7"/>
<path d="M212.037 67.8491L221.092 66.5235C253.526 61.7625 289.446 81.2395 289.798 81.4559L290.555 81.8617L291.23 81.3207C298.798 75.0988 301.69 70.3107 300.096 66.6588C296.906 59.409 276.824 61.2485 270.743 61.9518C258.283 63.4667 245.471 55.4595 244.931 55.1078L244.417 54.7832L243.823 54.9996C235.851 57.6434 228.021 60.6952 220.362 64.143L212.037 67.8491ZM290.419 78.8319C285.392 76.1268 257.066 62.2765 228.849 63.3044C233.984 61.1944 239.147 59.2737 244.228 57.5695C246.931 59.1655 259.175 65.9013 271.256 64.4676C282.824 63.088 296.122 63.4938 297.96 67.6597C298.393 68.9852 298.149 72.2314 290.419 78.8319Z" fill="#C7C7C7"/>
<path d="M517.455 558.076C529.239 558.076 539.078 555.155 546.781 548.987C571.106 529.212 568.728 481.142 539.753 413.73L537.267 414.812C565.322 480.06 568.16 528.211 545.078 546.985C499.13 584.046 366.691 499.888 249.416 359.356C156.871 248.445 98.7602 132.124 104.842 69.9056C106.274 55.2437 111.382 44.2608 119.977 37.3086C140.897 20.4014 181.115 28.3816 233.253 59.8154L234.658 57.516C181.467 25.46 140.059 17.534 118.275 35.2256C109.085 42.6377 103.679 54.1616 102.058 69.6621C95.8952 132.449 154.249 249.581 247.254 361.087C346.339 479.627 456.642 558.076 517.455 558.076Z" fill="#C7C7C7"/>
<path d="M186.738 414.758C242.393 414.37 297.902 409.029 352.611 398.798C497.455 372.369 618.866 319.537 654.679 267.382C663.274 254.857 666.571 242.765 664.436 231.458C658.814 201.539 616.542 180.655 545.512 172.621L545.187 175.326C613.947 183.062 656.49 203.73 661.787 231.944C663.787 242.549 660.652 253.937 652.462 265.867C617.028 317.481 496.32 369.826 352.124 396.147C170.575 429.285 14.0546 409.537 3.27032 352.107C-1.62183 326.165 24.4335 295.624 76.6791 266.11L75.3547 263.757C22.0549 293.865 -4.48682 325.434 0.621521 352.621C8.1084 392.414 82.6794 414.758 186.738 414.758Z" fill="#C7C7C7"/>
<mask id="path-13-inside-1" fill="white">
<path fill-rule="evenodd" clip-rule="evenodd" d="M113.539 47C107.166 47 102 52.1661 102 58.5388C102 58.6326 102.001 58.7262 102.003 58.8195V77C103.533 74.7058 107.951 70.131 113.445 70.0772C113.476 70.0775 113.507 70.0776 113.539 70.0776H123.403C129.775 70.0776 134.941 64.9115 134.941 58.5388C134.941 52.1661 129.775 47 123.403 47H113.539Z"/>
</mask>
<path fill-rule="evenodd" clip-rule="evenodd" d="M113.539 47C107.166 47 102 52.1661 102 58.5388C102 58.6326 102.001 58.7262 102.003 58.8195V77C103.533 74.7058 107.951 70.131 113.445 70.0772C113.476 70.0775 113.507 70.0776 113.539 70.0776H123.403C129.775 70.0776 134.941 64.9115 134.941 58.5388C134.941 52.1661 129.775 47 123.403 47H113.539Z" fill="#EC2C34"/>
<path d="M102.003 58.8195H106.003V58.7718L106.002 58.7241L102.003 58.8195ZM102.003 77H98.0033V90.2111L105.332 79.2188L102.003 77ZM113.445 70.0772L113.477 66.0774L113.441 66.0771L113.405 66.0774L113.445 70.0772ZM106 58.5388C106 54.3752 109.375 51 113.539 51V43C104.957 43 98 49.957 98 58.5388H106ZM106.002 58.7241C106.001 58.6626 106 58.6008 106 58.5388H98C98 58.6645 98.0015 58.7899 98.0045 58.915L106.002 58.7241ZM106.003 77V58.8195H98.0033V77H106.003ZM113.405 66.0774C109.555 66.1151 106.282 67.7258 103.89 69.46C101.498 71.194 99.686 73.2649 98.6751 74.7812L105.332 79.2188C105.85 78.441 107.012 77.0773 108.585 75.9369C110.158 74.7967 111.841 74.0931 113.484 74.077L113.405 66.0774ZM113.539 66.0776C113.518 66.0776 113.497 66.0775 113.477 66.0774L113.412 74.0771C113.455 74.0774 113.497 74.0776 113.539 74.0776V66.0776ZM123.403 66.0776H113.539V74.0776H123.403V66.0776ZM130.941 58.5388C130.941 62.7024 127.566 66.0776 123.403 66.0776V74.0776C131.984 74.0776 138.941 67.1206 138.941 58.5388H130.941ZM123.403 51C127.566 51 130.941 54.3752 130.941 58.5388H138.941C138.941 49.957 131.984 43 123.403 43V51ZM113.539 51H123.403V43H113.539V51Z" fill="#EC2C34" mask="url(#path-13-inside-1)"/>
<mask id="path-15-inside-2" fill="white">
<path fill-rule="evenodd" clip-rule="evenodd" d="M146.539 0C140.166 0 135 5.1661 135 11.5388C135 11.6326 135.001 11.7262 135.003 11.8195V30C136.533 27.7058 140.951 23.131 146.445 23.0772C146.476 23.0775 146.507 23.0776 146.539 23.0776H156.403C162.775 23.0776 167.941 17.9115 167.941 11.5388C167.941 5.1661 162.775 0 156.403 0H146.539Z"/>
</mask>
<path fill-rule="evenodd" clip-rule="evenodd" d="M146.539 0C140.166 0 135 5.1661 135 11.5388C135 11.6326 135.001 11.7262 135.003 11.8195V30C136.533 27.7058 140.951 23.131 146.445 23.0772C146.476 23.0775 146.507 23.0776 146.539 23.0776H156.403C162.775 23.0776 167.941 17.9115 167.941 11.5388C167.941 5.1661 162.775 0 156.403 0H146.539Z" fill="#EC2C34"/>
<path d="M135.003 11.8195H139.003V11.7718L139.002 11.7241L135.003 11.8195ZM135.003 30H131.003V43.2111L138.332 32.2188L135.003 30ZM146.445 23.0772L146.477 19.0774L146.441 19.0771L146.405 19.0774L146.445 23.0772ZM139 11.5388C139 7.37524 142.375 4 146.539 4V-4C137.957 -4 131 2.95696 131 11.5388H139ZM139.002 11.7241C139.001 11.6626 139 11.6008 139 11.5388H131C131 11.6645 131.002 11.7899 131.004 11.915L139.002 11.7241ZM139.003 30V11.8195H131.003V30H139.003ZM146.405 19.0774C142.555 19.1151 139.282 20.7258 136.89 22.46C134.498 24.194 132.686 26.2649 131.675 27.7812L138.332 32.2188C138.85 31.441 140.012 30.0773 141.585 28.9369C143.158 27.7967 144.841 27.0931 146.484 27.077L146.405 19.0774ZM146.539 19.0776C146.518 19.0776 146.497 19.0775 146.477 19.0774L146.412 27.0771C146.455 27.0774 146.497 27.0776 146.539 27.0776V19.0776ZM156.403 19.0776H146.539V27.0776H156.403V19.0776ZM163.941 11.5388C163.941 15.7024 160.566 19.0776 156.403 19.0776V27.0776C164.984 27.0776 171.941 20.1206 171.941 11.5388H163.941ZM156.403 4C160.566 4 163.941 7.37523 163.941 11.5388H171.941C171.941 2.95696 164.984 -4 156.403 -4V4ZM146.539 4H156.403V-4H146.539V4Z" fill="#EC2C34" mask="url(#path-15-inside-2)"/>
<mask id="path-17-inside-3" fill="white">
<path fill-rule="evenodd" clip-rule="evenodd" d="M279.539 380C273.166 380 268 385.166 268 391.539C268 391.633 268.001 391.726 268.003 391.82V410C269.533 407.706 273.951 403.131 279.445 403.077C279.476 403.077 279.507 403.078 279.539 403.078H289.403C295.775 403.078 300.941 397.912 300.941 391.539C300.941 385.166 295.775 380 289.403 380H279.539Z"/>
</mask>
<path fill-rule="evenodd" clip-rule="evenodd" d="M279.539 380C273.166 380 268 385.166 268 391.539C268 391.633 268.001 391.726 268.003 391.82V410C269.533 407.706 273.951 403.131 279.445 403.077C279.476 403.077 279.507 403.078 279.539 403.078H289.403C295.775 403.078 300.941 397.912 300.941 391.539C300.941 385.166 295.775 380 289.403 380H279.539Z" fill="#EC2C34"/>
<path d="M268.003 391.82H272.003V391.772L272.002 391.724L268.003 391.82ZM268.003 410H264.003V423.211L271.332 412.219L268.003 410ZM279.445 403.077L279.477 399.077L279.441 399.077L279.405 399.077L279.445 403.077ZM272 391.539C272 387.375 275.375 384 279.539 384V376C270.957 376 264 382.957 264 391.539H272ZM272.002 391.724C272.001 391.663 272 391.601 272 391.539H264C264 391.664 264.002 391.79 264.004 391.915L272.002 391.724ZM272.003 410V391.82H264.003V410H272.003ZM279.405 399.077C275.555 399.115 272.282 400.726 269.89 402.46C267.498 404.194 265.686 406.265 264.675 407.781L271.332 412.219C271.85 411.441 273.012 410.077 274.585 408.937C276.158 407.797 277.841 407.093 279.484 407.077L279.405 399.077ZM279.539 399.078C279.518 399.078 279.497 399.078 279.477 399.077L279.412 407.077C279.455 407.077 279.497 407.078 279.539 407.078V399.078ZM289.403 399.078H279.539V407.078H289.403V399.078ZM296.941 391.539C296.941 395.702 293.566 399.078 289.403 399.078V407.078C297.984 407.078 304.941 400.121 304.941 391.539H296.941ZM289.403 384C293.566 384 296.941 387.375 296.941 391.539H304.941C304.941 382.957 297.984 376 289.403 376V384ZM279.539 384H289.403V376H279.539V384Z" fill="#EC2C34" mask="url(#path-17-inside-3)"/>
<mask id="path-19-inside-4" fill="white">
<path fill-rule="evenodd" clip-rule="evenodd" d="M223.539 385C217.166 385 212 390.166 212 396.539C212 396.633 212.001 396.726 212.003 396.82V415C213.533 412.706 217.951 408.131 223.445 408.077C223.476 408.077 223.507 408.078 223.539 408.078H233.403C239.775 408.078 244.941 402.912 244.941 396.539C244.941 390.166 239.775 385 233.403 385H223.539Z"/>
</mask>
<path fill-rule="evenodd" clip-rule="evenodd" d="M223.539 385C217.166 385 212 390.166 212 396.539C212 396.633 212.001 396.726 212.003 396.82V415C213.533 412.706 217.951 408.131 223.445 408.077C223.476 408.077 223.507 408.078 223.539 408.078H233.403C239.775 408.078 244.941 402.912 244.941 396.539C244.941 390.166 239.775 385 233.403 385H223.539Z" fill="#EC2C34"/>
<path d="M212.003 396.82H216.003V396.772L216.002 396.724L212.003 396.82ZM212.003 415H208.003V428.211L215.332 417.219L212.003 415ZM223.445 408.077L223.477 404.077L223.441 404.077L223.405 404.077L223.445 408.077ZM216 396.539C216 392.375 219.375 389 223.539 389V381C214.957 381 208 387.957 208 396.539H216ZM216.002 396.724C216.001 396.663 216 396.601 216 396.539H208C208 396.664 208.002 396.79 208.004 396.915L216.002 396.724ZM216.003 415V396.82H208.003V415H216.003ZM223.405 404.077C219.555 404.115 216.282 405.726 213.89 407.46C211.498 409.194 209.686 411.265 208.675 412.781L215.332 417.219C215.85 416.441 217.012 415.077 218.585 413.937C220.158 412.797 221.841 412.093 223.484 412.077L223.405 404.077ZM223.539 404.078C223.518 404.078 223.497 404.078 223.477 404.077L223.412 412.077C223.455 412.077 223.497 412.078 223.539 412.078V404.078ZM233.403 404.078H223.539V412.078H233.403V404.078ZM240.941 396.539C240.941 400.702 237.566 404.078 233.403 404.078V412.078C241.984 412.078 248.941 405.121 248.941 396.539H240.941ZM233.403 389C237.566 389 240.941 392.375 240.941 396.539H248.941C248.941 387.957 241.984 381 233.403 381V389ZM223.539 389H233.403V381H223.539V389Z" fill="#EC2C34" mask="url(#path-19-inside-4)"/>
<mask id="path-21-inside-5" fill="white">
<path fill-rule="evenodd" clip-rule="evenodd" d="M122.539 100C116.166 100 111 105.166 111 111.539C111 111.633 111.001 111.726 111.003 111.82V130C112.533 127.706 116.951 123.131 122.445 123.077C122.476 123.077 122.507 123.078 122.539 123.078H132.403C138.775 123.078 143.941 117.912 143.941 111.539C143.941 105.166 138.775 100 132.403 100H122.539Z"/>
</mask>
<path fill-rule="evenodd" clip-rule="evenodd" d="M122.539 100C116.166 100 111 105.166 111 111.539C111 111.633 111.001 111.726 111.003 111.82V130C112.533 127.706 116.951 123.131 122.445 123.077C122.476 123.077 122.507 123.078 122.539 123.078H132.403C138.775 123.078 143.941 117.912 143.941 111.539C143.941 105.166 138.775 100 132.403 100H122.539Z" fill="#EC2C34"/>
<path d="M111.003 111.82H115.003V111.772L115.002 111.724L111.003 111.82ZM111.003 130H107.003V143.211L114.332 132.219L111.003 130ZM122.445 123.077L122.477 119.077L122.441 119.077L122.405 119.077L122.445 123.077ZM115 111.539C115 107.375 118.375 104 122.539 104V96C113.957 96 107 102.957 107 111.539H115ZM115.002 111.724C115.001 111.663 115 111.601 115 111.539H107C107 111.664 107.002 111.79 107.004 111.915L115.002 111.724ZM115.003 130V111.82H107.003V130H115.003ZM122.405 119.077C118.555 119.115 115.282 120.726 112.89 122.46C110.498 124.194 108.686 126.265 107.675 127.781L114.332 132.219C114.85 131.441 116.012 130.077 117.585 128.937C119.158 127.797 120.841 127.093 122.484 127.077L122.405 119.077ZM122.539 119.078C122.518 119.078 122.497 119.078 122.477 119.077L122.412 127.077C122.455 127.077 122.497 127.078 122.539 127.078V119.078ZM132.403 119.078H122.539V127.078H132.403V119.078ZM139.941 111.539C139.941 115.702 136.566 119.078 132.403 119.078V127.078C140.984 127.078 147.941 120.121 147.941 111.539H139.941ZM132.403 104C136.566 104 139.941 107.375 139.941 111.539H147.941C147.941 102.957 140.984 96 132.403 96V104ZM122.539 104H132.403V96H122.539V104Z" fill="#EC2C34" mask="url(#path-21-inside-5)"/>
</svg>
