<svg width="60" height="60" viewBox="0 0 60 60" fill="none" xmlns="http://www.w3.org/2000/svg">
<path d="M58 30H49V28C49 26.6739 48.4732 25.4021 47.5355 24.4645C46.5979 23.5268 45.3261 23 44 23C42.6739 23 41.4021 23.5268 40.4645 24.4645C39.5268 25.4021 39 26.6739 39 28V30H21V32C21 33.3261 20.4732 34.5979 19.5355 35.5355C18.5979 36.4732 17.3261 37 16 37C14.6739 37 13.4021 36.4732 12.4645 35.5355C11.5268 34.5979 11 33.3261 11 32V30H2" stroke="black" stroke-width="3" stroke-miterlimit="10" stroke-linecap="square"/>
<path d="M30 2V11H28C26.6739 11 25.4021 11.5268 24.4645 12.4645C23.5268 13.4021 23 14.6739 23 16C23 17.3261 23.5268 18.5979 24.4645 19.5355C25.4021 20.4732 26.6739 21 28 21H30V39H32C33.3261 39 34.5979 39.5268 35.5355 40.4645C36.4732 41.4021 37 42.6739 37 44C37 45.3261 36.4732 46.5979 35.5355 47.5355C34.5979 48.4732 33.3261 49 32 49H30V58" stroke="#E70031" stroke-width="3" stroke-miterlimit="10" stroke-linecap="square"/>
<path d="M57 2H3C2.44772 2 2 2.44771 2 3V57C2 57.5523 2.44771 58 3 58H57C57.5523 58 58 57.5523 58 57V3C58 2.44772 57.5523 2 57 2Z" stroke="black" stroke-width="3" stroke-miterlimit="10" stroke-linecap="square"/>
</svg>
