<svg width="29" height="27" viewBox="0 0 29 27" fill="none" xmlns="http://www.w3.org/2000/svg">
<g opacity="0.3">
<path d="M7 25.2454H21.4" stroke="#F8F6F6" stroke-width="2" stroke-miterlimit="10" stroke-linecap="square"/>
<path d="M25.4 1H3C1.89543 1 1 1.89543 1 3V18.3962C1 19.5008 1.89543 20.3962 3 20.3962H25.4C26.5045 20.3962 27.4 19.5008 27.4 18.3962V3C27.4 1.89543 26.5045 1 25.4 1Z" stroke="#F8F6F6" stroke-width="2" stroke-miterlimit="10" stroke-linecap="square"/>
<path d="M11.7988 7.72821C11.7988 6.92739 12.6932 6.45143 13.3574 6.89876L17.7672 9.86856C18.3557 10.2649 18.3557 11.1311 17.7672 11.5274L13.3574 14.4972C12.6932 14.9446 11.7988 14.4686 11.7988 13.6678V7.72821Z" stroke="#F8F6F6" stroke-width="2" stroke-miterlimit="10" stroke-linecap="square"/>
</g>
</svg>
