<svg width="116" height="39" viewBox="0 0 116 39" fill="none" xmlns="http://www.w3.org/2000/svg">
<path d="M64.4872 38.4374H63.3312L64.3914 36.5067L61.375 30.5181H62.5309L64.9591 35.4702L67.4762 30.5181H68.6254L64.4872 38.4374Z" fill="#F8F6F6"/>
<path d="M72.5026 30.4501C73.043 30.4416 73.5825 30.4961 74.11 30.6127C74.5153 30.6947 74.8952 30.8712 75.218 31.1275C75.5126 31.3769 75.7346 31.6996 75.861 32.0624C76.0094 32.5242 76.0788 33.0073 76.0662 33.4918C76.0777 33.9784 76.0083 34.4636 75.861 34.928C75.7385 35.2984 75.5162 35.6287 75.218 35.8832C74.8962 36.1439 74.5164 36.325 74.11 36.4116C73.0495 36.6283 71.9556 36.6283 70.8952 36.4116C70.4887 36.325 70.1089 36.1439 69.7871 35.8832C69.489 35.6287 69.2667 35.2984 69.1442 34.928C68.9968 34.4636 68.9275 33.9784 68.939 33.4918C68.9263 33.0073 68.9957 32.5242 69.1442 32.0624C69.2706 31.6996 69.4925 31.3769 69.7871 31.1275C70.11 30.8712 70.4898 30.6947 70.8952 30.6127C71.4227 30.4961 71.9622 30.4416 72.5026 30.4501ZM70.0881 33.4918C70.0827 33.8527 70.1264 34.2128 70.218 34.5622C70.2879 34.8359 70.4328 35.0852 70.6368 35.2825C70.8408 35.4798 71.096 35.6173 71.374 35.6799C72.1164 35.8515 72.8887 35.8515 73.6312 35.6799C73.9092 35.6173 74.1643 35.4798 74.3683 35.2825C74.5723 35.0852 74.7173 34.8359 74.7871 34.5622C74.9605 33.8589 74.9605 33.1247 74.7871 32.4214C74.7094 32.1637 74.5657 31.9304 74.3699 31.744C74.161 31.5549 73.9067 31.4219 73.6312 31.3579C72.8868 31.2043 72.1184 31.2043 71.374 31.3579C71.0985 31.4219 70.8441 31.5549 70.6353 31.744C70.4395 31.9304 70.2957 32.1637 70.218 32.4214C70.1264 32.7708 70.0827 33.1309 70.0881 33.4918Z" fill="#F8F6F6"/>
<path d="M83.1331 35.5242C83.1423 35.6551 83.1253 35.7866 83.0831 35.911C83.0408 36.0354 82.9741 36.1502 82.8869 36.249C82.7762 36.3448 82.6469 36.4171 82.5069 36.4614C82.3669 36.5057 82.2192 36.521 82.0729 36.5065H79.5011C78.8853 36.5475 78.2729 36.3881 77.7569 36.0526C77.5432 35.8702 77.377 35.6396 77.2722 35.3802C77.1674 35.1208 77.1273 34.8402 77.155 34.5622V30.4976H78.2563V34.3725C78.2358 34.7229 78.3425 35.0689 78.5572 35.348C78.698 35.4878 78.8692 35.594 79.0576 35.6586C79.246 35.7232 79.4468 35.7444 79.6448 35.7206H81.6215C81.7283 35.7287 81.8346 35.6999 81.9225 35.6393C81.964 35.6009 81.9956 35.5531 82.0146 35.5001C82.0336 35.4471 82.0396 35.3903 82.0319 35.3345V30.5179H83.1331V35.5242Z" fill="#F8F6F6"/>
<path d="M84.4465 32.6789C84.4211 32.3764 84.4645 32.0722 84.5734 31.7885C84.6823 31.5048 84.8539 31.2489 85.0758 31.0395C85.6361 30.6504 86.3155 30.466 86.9978 30.5178H87.7639V31.2901H87.1962C86.9667 31.2659 86.7346 31.2889 86.5145 31.3577C86.2944 31.4265 86.091 31.5395 85.9171 31.6898C85.6437 32.0385 85.512 32.4759 85.5477 32.916V36.5064H84.4465V32.6789Z" fill="#F8F6F6"/>
<path d="M93.3315 35.355L93.3931 35.4702C93.3931 35.5176 93.441 35.5379 93.4752 35.5379C93.4959 35.5399 93.5166 35.534 93.5332 35.5214C93.5497 35.5088 93.5607 35.4905 93.5641 35.4702C93.5745 35.434 93.5906 35.3997 93.612 35.3685L94.98 30.9719C95.0059 30.8738 95.0538 30.7826 95.1201 30.7052C95.1864 30.6278 95.2694 30.5662 95.363 30.5248C95.4366 30.4919 95.5152 30.4713 95.5956 30.4639H95.8076H96.0128C96.0954 30.4713 96.1762 30.4919 96.2522 30.5248C96.3366 30.5653 96.4131 30.6203 96.4779 30.6874C96.554 30.7685 96.6102 30.8658 96.6421 30.9719L98.0101 35.3685C98.0201 35.4037 98.0339 35.4378 98.0511 35.4702C98.0558 35.4899 98.0672 35.5073 98.0834 35.5197C98.0996 35.532 98.1196 35.5384 98.14 35.5379C98.1742 35.5379 98.2016 35.5379 98.2289 35.4769C98.2525 35.4388 98.2709 35.3978 98.2837 35.355L99.7269 30.5181H100.801L99.125 35.9376C99.0683 36.1262 98.9593 36.2952 98.8103 36.4254C98.6308 36.5499 98.4135 36.6097 98.1947 36.5947C97.9521 36.6155 97.7098 36.5507 97.5107 36.4118C97.3703 36.312 97.2669 36.1692 97.2166 36.0053L95.9034 31.7917C95.8811 31.7513 95.865 31.7079 95.8555 31.6629C95.8555 31.6155 95.8555 31.5884 95.7871 31.5884C95.7187 31.5884 95.7392 31.5884 95.7187 31.6629C95.7061 31.707 95.6901 31.75 95.6708 31.7917L94.3917 35.985C94.3392 36.1442 94.2419 36.2852 94.1113 36.3915C93.913 36.5321 93.6701 36.597 93.4273 36.5744C93.2061 36.5933 92.9853 36.5333 92.8049 36.405C92.6581 36.2742 92.5515 36.1052 92.4971 35.9173L90.8145 30.4977H91.8883L93.3315 35.355Z" fill="#F8F6F6"/>
<path d="M105.41 30.5178C105.656 30.4961 105.905 30.5246 106.14 30.6015C106.375 30.6784 106.592 30.802 106.778 30.9649C106.928 31.1243 107.045 31.3119 107.121 31.5166C107.198 31.7214 107.232 31.9391 107.222 32.1572V35.6257C107.233 35.7489 107.217 35.8729 107.175 35.9896C107.134 36.1064 107.068 36.2132 106.983 36.3031C106.738 36.4789 106.436 36.5585 106.135 36.5267H103.036C102.789 36.5479 102.541 36.5192 102.306 36.4424C102.071 36.3655 101.854 36.2421 101.668 36.0796C101.393 35.6802 101.246 35.208 101.246 34.7247C101.246 34.2413 101.393 33.7692 101.668 33.3698C101.85 33.2013 102.066 33.0726 102.302 32.992C102.538 32.9115 102.788 32.881 103.036 32.9024H106.121V32.2249C106.128 31.9971 106.045 31.7757 105.888 31.6084C105.786 31.5197 105.667 31.4528 105.537 31.412C105.408 31.3711 105.271 31.3573 105.136 31.3713H101.716V30.5178H105.41ZM103.282 33.6272C103.154 33.612 103.024 33.6295 102.904 33.6781C102.784 33.7267 102.679 33.8048 102.598 33.905C102.481 34.1459 102.421 34.4099 102.421 34.6773C102.421 34.9446 102.481 35.2086 102.598 35.4495C102.677 35.5532 102.781 35.6347 102.901 35.6858C103.021 35.7369 103.153 35.7559 103.282 35.7408H105.786C105.874 35.7294 105.956 35.6888 106.018 35.6257C106.049 35.5985 106.074 35.565 106.09 35.5276C106.107 35.4902 106.115 35.4497 106.114 35.4089V33.6272H103.282Z" fill="#F8F6F6"/>
<path d="M110.854 38.4374H109.698L110.759 36.5067L107.742 30.5181H108.898L111.326 35.4702L113.843 30.5181H114.999L110.854 38.4374Z" fill="#F8F6F6"/>
<path d="M26.6074 5.49463H24.6922C24.3294 5.49463 23.9814 5.63738 23.7249 5.89147C23.4683 6.14556 23.3242 6.49017 23.3242 6.84951V20.9132C23.3242 21.2725 23.4683 21.6172 23.7249 21.8713C23.9814 22.1253 24.3294 22.2681 24.6922 22.2681H26.6074C26.9702 22.2681 27.3182 22.1253 27.5747 21.8713C27.8313 21.6172 27.9754 21.2725 27.9754 20.9132V6.89016C27.9754 6.53082 27.8313 6.1862 27.5747 5.93211C27.3182 5.67802 26.9702 5.53528 26.6074 5.53528" fill="#F8F6F6"/>
<path d="M19.7196 5.49463C19.143 5.49481 18.5787 5.65898 18.0937 5.96763C17.6087 6.27627 17.2234 6.7164 16.9836 7.23565L11.9152 17.946C11.7921 18.1967 11.5527 18.6235 11.3543 18.6235C11.1559 18.6235 10.9165 18.2102 10.7934 17.946L5.67031 7.23565C5.43054 6.7164 5.04522 6.27627 4.5602 5.96763C4.07517 5.65898 3.51084 5.49481 2.93434 5.49463H0L8.07797 20.9809C8.89193 22.5052 10.513 22.4713 11.3543 22.4713C12.5171 22.4713 13.8714 22.4104 14.5964 20.9809L22.6676 5.49463H19.7196Z" fill="#F8F6F6"/>
<path d="M108.96 2.9208C108.96 2.56146 108.816 2.21684 108.559 1.96275C108.303 1.70866 107.955 1.56592 107.592 1.56592H105.677C105.314 1.56592 104.966 1.70866 104.709 1.96275C104.453 2.21684 104.309 2.56146 104.309 2.9208V16.8016C104.309 18.9288 105.068 20.1888 106.429 21.0491C107.79 21.9095 109.268 22.2821 112.106 22.2821H113.645C114.008 22.2821 114.356 22.1393 114.612 21.8853C114.869 21.6312 115.013 21.2865 115.013 20.9272V19.4301H113.85C113.009 19.4301 111.251 19.4301 110.211 18.7052C108.843 17.8177 108.973 16.2325 108.973 15.0944L108.96 2.9208Z" fill="#F8F6F6"/>
<path d="M79.0079 19.4301C78.1666 19.4301 76.4088 19.4301 75.3691 18.7052C74.0011 17.8177 74.1311 16.2325 74.1311 15.0944V8.32001H78.6591C79.0219 8.32001 79.3699 8.17727 79.6264 7.92318C79.883 7.66909 80.0271 7.32447 80.0271 6.96513V5.49508H74.1105V2.9208C74.1105 2.56146 73.9664 2.21684 73.7099 1.96275C73.4533 1.70866 73.1054 1.56592 72.7426 1.56592H70.8274C70.4646 1.56592 70.1166 1.70866 69.8601 1.96275C69.6035 2.21684 69.4594 2.56146 69.4594 2.9208V5.49508H59.6988V2.9208C59.6988 2.56146 59.5547 2.21684 59.2981 1.96275C59.0416 1.70866 58.6936 1.56592 58.3308 1.56592H56.4156C56.0528 1.56592 55.7048 1.70866 55.4483 1.96275C55.1918 2.21684 55.0476 2.56146 55.0476 2.9208V5.49508H52.0996V6.97868C52.0996 7.33802 52.2437 7.68264 52.5003 7.93673C52.7568 8.19082 53.1048 8.33356 53.4676 8.33356H55.0066V16.8016C55.0066 18.9288 55.7658 20.1888 57.127 21.0491C58.4881 21.9095 59.9655 22.2821 62.8041 22.2821H64.3431C64.7059 22.2821 65.0539 22.1393 65.3104 21.8853C65.567 21.6312 65.7111 21.2865 65.7111 20.9272V19.4301H64.5483C63.707 19.4301 61.9491 19.4301 60.9095 18.7052C59.5415 17.8177 59.6714 16.2325 59.6714 15.0944V8.32001H69.4252V16.8016C69.4252 18.9288 70.1844 20.1888 71.5456 21.0491C72.9067 21.9095 74.3841 22.2821 77.2227 22.2821H78.7617C79.1245 22.2821 79.4725 22.1393 79.729 21.8853C79.9856 21.6312 80.1297 21.2865 80.1297 20.9272V19.4301H79.0079Z" fill="#F8F6F6"/>
<path d="M50.3827 20.9131V19.4295H40.027C38.3033 19.4295 36.3471 19.2398 35.7452 17.4378C35.5607 16.679 35.4666 15.9014 35.4648 15.1209H47.7767C48.5866 15.1783 49.3916 14.9556 50.0544 14.4909C50.4101 14.176 50.6858 13.7825 50.8593 13.3423C51.0328 12.9021 51.0992 12.4276 51.053 11.9573C51.053 9.83013 50.5332 7.74361 48.0571 6.53776C46.1009 5.53515 43.5427 5.42676 41.0393 5.42676C39.0352 5.42676 35.4374 5.42676 33.1187 7.01197C30.7999 8.59718 30.6016 10.9073 30.6016 14.0438C30.6016 16.2658 30.7178 18.5759 32.12 20.1408C33.8779 22.1054 36.436 22.2612 38.5975 22.2612H49.001C49.3638 22.2612 49.7118 22.1184 49.9683 21.8643C50.2249 21.6103 50.369 21.2656 50.369 20.9063L50.3827 20.9131ZM46.224 11.2866C46.224 11.7337 46.1009 12.2689 45.1843 12.2689H38.5291C36.8396 12.2689 35.4648 13.0412 35.4648 13.9828V12.2689C35.5058 11.1647 35.4648 10.2366 36.4292 9.38979C37.7083 8.25169 39.6234 8.27879 40.8615 8.27879C42.0995 8.27879 43.7001 8.34653 44.8628 9.0443C45.2637 9.27303 45.5994 9.5987 45.8386 9.99084C46.0779 10.383 46.2128 10.8288 46.2308 11.2866" fill="#F8F6F6"/>
<path d="M100.964 20.9131V19.4295H90.6081C88.8844 19.4295 86.9282 19.2398 86.3262 17.4378C86.1418 16.679 86.0477 15.9014 86.0458 15.1209H98.3577C99.1676 15.1777 99.9724 14.9551 100.635 14.4909C100.991 14.176 101.267 13.7825 101.44 13.3423C101.614 12.9021 101.68 12.4276 101.634 11.9573C101.634 9.83013 101.114 7.74361 98.6313 6.53776C96.6819 5.53515 94.1238 5.42676 91.6546 5.42676C89.6505 5.42676 86.0526 5.42676 83.7339 7.01197C81.4152 8.59718 81.2168 10.9073 81.2168 14.0438C81.2168 16.2658 81.3331 18.5759 82.7353 20.1408C84.4931 22.1054 87.0513 22.2612 89.2127 22.2612H99.5889C99.9517 22.2612 100.3 22.1184 100.556 21.8643C100.813 21.6103 100.957 21.2656 100.957 20.9063L100.964 20.9131ZM96.7982 11.2799C96.7982 11.727 96.6751 12.2621 95.7585 12.2621H89.1033C87.4138 12.2621 86.039 13.0344 86.039 13.9761V12.2689C86.08 11.1647 86.039 10.2366 86.9966 9.38979C88.2756 8.25169 90.1976 8.27879 91.4357 8.27879C92.6737 8.27879 94.2743 8.34653 95.4371 9.0443C95.8379 9.27303 96.1736 9.5987 96.4128 9.99084C96.6521 10.383 96.787 10.8288 96.805 11.2866" fill="#F8F6F6"/>
<path d="M26.6075 0.79248H24.6924C24.3295 0.79248 23.9816 0.935241 23.725 1.18936C23.4685 1.44347 23.3244 1.78812 23.3244 2.1475V5.69087C23.3107 4.85753 24.2409 3.90902 25.65 3.90902H26.6075C26.9704 3.90902 27.3183 3.76626 27.5749 3.51214C27.8314 3.25803 27.9755 2.91338 27.9755 2.554V2.1475C27.9755 1.78812 27.8314 1.44347 27.5749 1.18936C27.3183 0.935241 26.9704 0.79248 26.6075 0.79248" fill="#F8F6F6"/>
</svg>
