<svg width="126" height="124" viewBox="0 0 126 124" fill="none" xmlns="http://www.w3.org/2000/svg">
<path d="M2 122C2 108.152 13.2263 96.9253 27.0746 96.9253C40.923 96.9253 52.1492 108.152 52.1492 122" stroke="white" stroke-width="3" stroke-miterlimit="10" stroke-linecap="square"/>
<path d="M27.0744 96.9253C34.9878 96.9253 41.4028 90.5102 41.4028 82.5969C41.4028 74.6836 34.9878 68.2686 27.0744 68.2686C19.1611 68.2686 12.7461 74.6836 12.7461 82.5969C12.7461 90.5102 19.1611 96.9253 27.0744 96.9253Z" stroke="white" stroke-width="3" stroke-miterlimit="10" stroke-linecap="square"/>
<path d="M73.6426 122C73.6426 108.152 84.8688 96.9253 98.7172 96.9253C112.566 96.9253 123.792 108.152 123.792 122" stroke="white" stroke-width="3" stroke-miterlimit="10" stroke-linecap="square"/>
<path d="M98.717 96.9253C106.63 96.9253 113.045 90.5102 113.045 82.5969C113.045 74.6836 106.63 68.2686 98.717 68.2686C90.8037 68.2686 84.3887 74.6836 84.3887 82.5969C84.3887 90.5102 90.8037 96.9253 98.717 96.9253Z" stroke="white" stroke-width="3" stroke-miterlimit="10" stroke-linecap="square"/>
<path d="M37.8223 55.7313C37.8223 41.883 49.0485 30.6567 62.8969 30.6567C76.7452 30.6567 87.9715 41.883 87.9715 55.7313" stroke="white" stroke-width="3" stroke-miterlimit="10" stroke-linecap="square"/>
<path d="M62.8967 30.6567C70.81 30.6567 77.2251 24.2417 77.2251 16.3283C77.2251 8.41502 70.81 2 62.8967 2C54.9834 2 48.5684 8.41502 48.5684 16.3283C48.5684 24.2417 54.9834 30.6567 62.8967 30.6567Z" stroke="white" stroke-width="3" stroke-miterlimit="10" stroke-linecap="square"/>
</svg>
