<svg width="120" height="119" viewBox="0 0 120 119" fill="none" xmlns="http://www.w3.org/2000/svg">
<path d="M30.9782 116.815L25.2278 110.272L4.79508 86.4345C2.99106 84.3293 1.99964 81.6482 2 78.8758V43.4921C2 41.6953 2.71377 39.9721 3.98429 38.7016C5.25481 37.4311 6.978 36.7173 8.77478 36.7173C10.5716 36.7173 12.2948 37.4311 13.5653 38.7016C14.8358 39.9721 15.5496 41.6953 15.5496 43.4921V66.0037" stroke="white" stroke-width="3" stroke-miterlimit="10"/>
<path d="M48.4588 118.015V91.8543C48.4586 88.7746 47.2353 85.8211 45.0578 83.6432L26.1988 64.7842C25.5633 64.1486 24.8089 63.6443 23.9786 63.3004C23.1483 62.9564 22.2584 62.7793 21.3596 62.7793C20.4609 62.7793 19.5709 62.9564 18.7406 63.3004C17.9103 63.6443 17.1559 64.1486 16.5205 64.7842V64.7842C15.8849 65.4196 15.3807 66.174 15.0367 67.0043C14.6927 67.8346 14.5156 68.7245 14.5156 69.6233C14.5156 70.522 14.6927 71.412 15.0367 72.2423C15.3807 73.0726 15.8849 73.827 16.5205 74.4624L31.0379 88.9798" stroke="white" stroke-width="3" stroke-miterlimit="10"/>
<path d="M88.9336 117.539L94.9103 110.272L115.343 86.4345C117.147 84.3293 118.139 81.6482 118.138 78.8758V43.4921C118.138 41.6953 117.424 39.9721 116.154 38.7016C114.883 37.4311 113.16 36.7173 111.363 36.7173C109.567 36.7173 107.843 37.4311 106.573 38.7016C105.302 39.9721 104.589 41.6953 104.589 43.4921V66.0037" stroke="white" stroke-width="3" stroke-miterlimit="10"/>
<path d="M71.6836 118.015V91.8543C71.6837 88.7746 72.9071 85.8211 75.0845 83.6432L93.9436 64.7842C94.579 64.1486 95.3334 63.6443 96.1637 63.3004C96.994 62.9564 97.884 62.7793 98.7827 62.7793C99.6815 62.7793 100.571 62.9564 101.402 63.3004C102.232 63.6443 102.986 64.1486 103.622 64.7842V64.7842C104.257 65.4196 104.762 66.174 105.106 67.0043C105.45 67.8346 105.627 68.7245 105.627 69.6233C105.627 70.522 105.45 71.412 105.106 72.2423C104.762 73.0726 104.257 73.827 103.622 74.4624L89.1045 88.9798" stroke="white" stroke-width="3" stroke-miterlimit="10"/>
<path d="M60.0699 59.9451C76.1054 59.9451 89.1047 46.9457 89.1047 30.9103C89.1047 14.8748 76.1054 1.87549 60.0699 1.87549C44.0345 1.87549 31.0352 14.8748 31.0352 30.9103C31.0352 46.9457 44.0345 59.9451 60.0699 59.9451Z" stroke="white" stroke-width="3" stroke-miterlimit="10" stroke-linecap="square"/>
<path d="M27.3309 12.1308C22.8297 19.9271 33.7873 34.6803 51.8054 45.083C69.8235 55.4857 88.079 57.5986 92.5802 49.8023C97.0814 42.0061 86.1238 27.2529 68.1057 16.8502C50.0876 6.44749 31.8321 4.33457 27.3309 12.1308Z" stroke="white" stroke-width="3" stroke-miterlimit="10" stroke-linecap="square"/>
</svg>
