<svg width="16" height="12" viewBox="0 0 16 12" fill="none" xmlns="http://www.w3.org/2000/svg">
<path d="M15.3333 6.42171H0.666667C0.298667 6.42171 0 6.12371 0 5.75505C0 5.38638 0.298667 5.08838 0.666667 5.08838H15.3333C15.7013 5.08838 16 5.38638 16 5.75505C16 6.12371 15.7013 6.42171 15.3333 6.42171Z" fill="black"/>
<path d="M15.3333 1.75521H0.666667C0.298667 1.75521 0 1.45721 0 1.08854C0 0.719875 0.298667 0.421875 0.666667 0.421875H15.3333C15.7013 0.421875 16 0.719875 16 1.08854C16 1.45721 15.7013 1.75521 15.3333 1.75521Z" fill="black"/>
<path d="M15.334 11.0887H8.00065C7.63265 11.0887 7.33398 10.7907 7.33398 10.422C7.33398 10.0534 7.63265 9.75537 8.00065 9.75537H15.334C15.702 9.75537 16.0007 10.0534 16.0007 10.422C16.0007 10.7907 15.702 11.0887 15.334 11.0887Z" fill="black"/>
</svg>
