<svg width="57" height="118" viewBox="0 0 57 118" fill="none" xmlns="http://www.w3.org/2000/svg">
<path opacity="0.3" fill-rule="evenodd" clip-rule="evenodd" d="M6.21178 58.0773C-0.434963 53.174 2.07119 43.2583 3.37875 37.5923C6.53868 38.6819 7.19246 42.9315 6.97453 47.5079C6.97453 48.4886 6.21178 55.5712 6.21178 58.0773ZM8.60897 74.3128C0.763626 71.4798 0.436737 61.2373 0.00088501 55.4622C3.37874 55.4622 5.12215 59.4938 6.32075 63.9613C6.53867 65.3779 7.84623 71.9156 8.60897 74.3128ZM8.60897 42.1687C3.59667 35.413 8.60897 26.696 11.8779 21.6837C14.6019 23.645 13.9482 27.8946 11.8779 32.58C12.3137 32.6889 9.48068 39.6626 8.8269 42.1687H8.60897ZM12.0958 57.4235C13.5123 61.7821 16.4543 69.3005 9.91653 73.9859C9.15379 69.7364 6.7566 59.8207 12.3137 57.4235H12.0958ZM15.0378 43.5852C15.0378 48.1617 15.8005 56.225 8.28209 58.7311C7.9552 54.4815 8.50001 43.5852 15.0378 43.5852ZM15.0378 89.1318C6.64764 89.1318 3.37874 78.9982 1.30844 73.5501C4.57734 72.6784 7.41039 75.9473 9.80757 79.8699C10.7882 80.6327 13.9482 87.1705 15.0378 89.1318ZM13.7302 71.9156C16.3454 75.7293 21.2487 82.0492 16.3454 88.3691C15.0378 84.6643 9.48068 76.2742 14.1661 71.9156H13.7302ZM21.2487 30.1828C19.9411 34.5413 18.1977 42.4956 10.3524 42.7135C11.6599 38.5729 15.0378 29.0931 21.2487 30.1828ZM15.6916 27.5677C12.9675 19.7223 20.5949 12.9666 24.7355 8.93497C26.8058 11.5501 24.7355 15.4728 22.2294 19.1775C21.6845 19.9402 17.1081 25.3884 15.6916 27.5677ZM25.9341 101.445C17.8708 103.297 11.9868 94.9069 8.39105 90.5483C11.3331 88.8049 14.9288 91.0931 18.3067 94.1441C19.3963 94.58 24.2997 99.8102 25.9341 101.445ZM19.8322 85.3181C23.319 88.1511 29.9657 92.8365 27.0237 100.246C24.1907 97.304 16.7812 90.3304 20.1591 85.3181H19.8322ZM30.7285 19.9402C28.3313 23.754 24.4086 30.8366 16.6722 28.7663C19.5053 25.0615 25.9341 16.8893 31.0554 19.7223L30.7285 19.9402ZM40.0993 110.38C32.9077 114.629 24.7355 108.418 20.0501 105.04C22.3383 102.425 26.4789 103.624 30.9464 105.04C31.8181 105.694 38.029 108.963 40.4262 110.162L40.0993 110.38ZM26.8058 15.6907C25.9341 7.40949 35.196 2.83304 40.3172 0C41.6248 3.15993 38.7917 6.42882 35.3049 9.26186C34.5422 9.91564 28.6582 14.0562 26.8058 15.6907ZM29.7478 96.5413C33.9974 98.0668 41.7338 100.791 41.1889 108.963C36.8304 106.893 28.0044 102.425 29.7478 96.5413ZM43.5861 11.9859C40.3172 15.1459 34.6511 20.9209 27.7865 16.9982C31.1643 14.2742 39.1186 7.95431 43.5861 11.9859ZM38.6828 9.04394C39.8425 6.65831 41.8326 4.77765 44.2799 3.75458C46.7273 2.73151 49.4638 2.63631 51.9763 3.48682C50.4681 5.5264 48.4361 7.11984 46.0957 8.0982C43.7553 9.07655 41.1938 9.40334 38.6828 9.04394ZM56.3348 114.193C50.5598 120.404 41.08 116.699 35.5229 114.847C36.9394 111.796 41.2979 111.687 45.7654 112.341C46.7461 112.45 53.7197 113.975 56.3348 114.193ZM42.1696 104.278C46.7461 104.278 54.8093 104.931 56.5527 112.668C52.3032 112.014 42.1696 110.38 42.1696 104.278Z" fill="#1A1A1A"/>
</svg>
