<svg width="25" height="28" viewBox="0 0 25 28" fill="none" xmlns="http://www.w3.org/2000/svg">
<path d="M12.474 12.8711C13.9364 12.8711 15.1218 11.6735 15.1218 10.1962C15.1218 8.71885 13.9364 7.52124 12.474 7.52124C11.0116 7.52124 9.82617 8.71885 9.82617 10.1962C9.82617 11.6735 11.0116 12.8711 12.474 12.8711Z" stroke="#ED2C34" stroke-width="2" stroke-miterlimit="10" stroke-linecap="square"/>
<path d="M17.4648 15.2397C18.1205 14.5774 18.6407 13.791 18.9955 12.9256C19.3504 12.0601 19.5331 11.1326 19.5331 10.1958C19.5331 9.25905 19.3504 8.33147 18.9955 7.46602C18.6407 6.60058 18.1205 5.81422 17.4648 5.15186" stroke="#ED2C34" stroke-width="2" stroke-miterlimit="10" stroke-linecap="square"/>
<path d="M7.48033 15.2397C6.82463 14.5774 6.30449 13.791 5.94962 12.9256C5.59476 12.0601 5.41211 11.1326 5.41211 10.1958C5.41211 9.25905 5.59476 8.33147 5.94962 7.46602C6.30449 6.60058 6.82463 5.81422 7.48033 5.15186" stroke="#ED2C34" stroke-width="2" stroke-miterlimit="10" stroke-linecap="square"/>
<path d="M12.4727 26.2451V12.8711" stroke="#ED2C34" stroke-width="2" stroke-miterlimit="10" stroke-linecap="square"/>
<path d="M8.06055 26.2451H16.8867" stroke="#ED2C34" stroke-width="2" stroke-miterlimit="10" stroke-linecap="square"/>
<path d="M20.5859 18.3916C22.7375 16.2179 23.9462 13.2698 23.9462 10.1958C23.9462 7.12182 22.7375 4.17373 20.5859 2" stroke="#ED2C34" stroke-width="2" stroke-miterlimit="10" stroke-linecap="square"/>
<path d="M4.36031 18.3916C2.20873 16.2179 1 13.2698 1 10.1958C1 7.12182 2.20873 4.17373 4.36031 2" stroke="#ED2C34" stroke-width="2" stroke-miterlimit="10" stroke-linecap="square"/>
</svg>
