<svg width="89" height="30" viewBox="0 0 89 30" fill="none" xmlns="http://www.w3.org/2000/svg">
<path d="M49.8942 29.3693H48.9999L49.8201 27.8631L47.4863 23.1909H48.3807L50.2594 27.0544L52.2069 23.1909H53.096L49.8942 29.3693Z" fill="#221E20"/>
<path d="M56.0962 23.1384C56.5143 23.1317 56.9317 23.1743 57.3398 23.2652C57.6535 23.3292 57.9474 23.4669 58.1972 23.6669C58.4251 23.8614 58.5968 24.1132 58.6946 24.3963C58.8095 24.7565 58.8631 25.1335 58.8534 25.5114C58.8623 25.8911 58.8086 26.2696 58.6946 26.6319C58.5998 26.9209 58.4278 27.1786 58.1972 27.3771C57.9482 27.5805 57.6543 27.7218 57.3398 27.7894C56.5194 27.9584 55.673 27.9584 54.8526 27.7894C54.5381 27.7218 54.2442 27.5805 53.9952 27.3771C53.7646 27.1786 53.5926 26.9209 53.4978 26.6319C53.3838 26.2696 53.3301 25.8911 53.339 25.5114C53.3293 25.1335 53.3829 24.7565 53.4978 24.3963C53.5956 24.1132 53.7673 23.8614 53.9952 23.6669C54.245 23.4669 54.5389 23.3292 54.8526 23.2652C55.2607 23.1743 55.6781 23.1317 56.0962 23.1384ZM54.2281 25.5114C54.224 25.793 54.2578 26.0739 54.3286 26.3465C54.3827 26.5601 54.4948 26.7546 54.6527 26.9085C54.8105 27.0624 55.0079 27.1697 55.223 27.2186C55.7974 27.3524 56.395 27.3524 56.9694 27.2186C57.1845 27.1697 57.3819 27.0624 57.5397 26.9085C57.6976 26.7546 57.8097 26.5601 57.8638 26.3465C57.9979 25.7978 57.9979 25.225 57.8638 24.6764C57.8036 24.4753 57.6924 24.2932 57.5409 24.1478C57.3794 24.0003 57.1826 23.8966 56.9694 23.8466C56.3935 23.7268 55.799 23.7268 55.223 23.8466C55.0098 23.8966 54.8131 24.0003 54.6515 24.1478C54.5 24.2932 54.3888 24.4753 54.3286 24.6764C54.2578 24.949 54.224 25.2298 54.2281 25.5114Z" fill="#221E20"/>
<path d="M64.3213 27.0969C64.3285 27.1991 64.3153 27.3016 64.2826 27.3987C64.2499 27.4957 64.1983 27.5854 64.1308 27.6624C64.0452 27.7372 63.9451 27.7936 63.8368 27.8281C63.7285 27.8627 63.6142 27.8746 63.5011 27.8633H61.5112C61.0348 27.8953 60.5609 27.7709 60.1618 27.5092C59.9964 27.3669 59.8678 27.187 59.7867 26.9846C59.7057 26.7822 59.6746 26.5633 59.6961 26.3464V23.1753H60.5481V26.1984C60.5323 26.4718 60.6149 26.7417 60.7809 26.9595C60.8899 27.0686 61.0223 27.1514 61.1681 27.2018C61.3139 27.2522 61.4692 27.2687 61.6224 27.2502H63.1518C63.2344 27.2565 63.3167 27.2341 63.3846 27.1868C63.4168 27.1568 63.4412 27.1195 63.4559 27.0781C63.4707 27.0368 63.4753 26.9925 63.4693 26.9489V23.1911H64.3213V27.0969Z" fill="#221E20"/>
<path d="M65.3375 24.8772C65.3179 24.6413 65.3514 24.4039 65.4357 24.1826C65.5199 23.9612 65.6527 23.7616 65.8244 23.5982C66.2579 23.2947 66.7835 23.1508 67.3114 23.1913H67.9041V23.7938H67.4649C67.2873 23.7749 67.1078 23.7928 66.9375 23.8465C66.7672 23.9002 66.6098 23.9884 66.4753 24.1056C66.2638 24.3777 66.1618 24.7189 66.1895 25.0622V27.8634H65.3375V24.8772Z" fill="#221E20"/>
<path d="M72.2112 26.9649L72.2588 27.0547C72.2588 27.0917 72.2958 27.1076 72.3223 27.1076C72.3383 27.1091 72.3544 27.1045 72.3671 27.0947C72.3799 27.0849 72.3885 27.0706 72.3911 27.0547C72.3991 27.0265 72.4116 26.9997 72.4281 26.9754L73.4866 23.5453C73.5066 23.4687 73.5437 23.3976 73.595 23.3372C73.6463 23.2768 73.7105 23.2288 73.7829 23.1965C73.8399 23.1708 73.9006 23.1548 73.9628 23.1489H74.1269H74.2857C74.3496 23.1548 74.4121 23.1708 74.4709 23.1965C74.5362 23.228 74.5954 23.271 74.6455 23.3233C74.7044 23.3866 74.7479 23.4625 74.7725 23.5453L75.831 26.9754C75.8387 27.0029 75.8494 27.0295 75.8627 27.0547C75.8664 27.0701 75.8752 27.0837 75.8877 27.0933C75.9002 27.103 75.9157 27.108 75.9315 27.1076C75.958 27.1076 75.9791 27.1076 76.0003 27.06C76.0185 27.0303 76.0328 26.9983 76.0426 26.9649L77.1593 23.1912H77.9901L76.6936 27.4194C76.6497 27.5665 76.5654 27.6984 76.4501 27.7999C76.3112 27.8971 76.1431 27.9438 75.9738 27.932C75.7861 27.9483 75.5987 27.8977 75.4446 27.7893C75.3359 27.7115 75.256 27.6 75.2171 27.4722L74.201 24.1848C74.1838 24.1534 74.1713 24.1195 74.1639 24.0844C74.1639 24.0474 74.1639 24.0263 74.111 24.0263C74.0581 24.0263 74.074 24.0263 74.0581 24.0844C74.0484 24.1188 74.036 24.1524 74.0211 24.1848L73.0314 27.4564C72.9908 27.5805 72.9155 27.6905 72.8145 27.7735C72.661 27.8832 72.4731 27.9338 72.2852 27.9162C72.1141 27.931 71.9433 27.8841 71.8037 27.7841C71.6901 27.682 71.6076 27.5502 71.5655 27.4035L70.2637 23.1754H71.0945L72.2112 26.9649Z" fill="#221E20"/>
<path d="M81.5553 23.191C81.7462 23.1741 81.9385 23.1964 82.1205 23.2564C82.3025 23.3163 82.4704 23.4128 82.6137 23.5398C82.7302 23.6642 82.8206 23.8106 82.8796 23.9703C82.9387 24.13 82.9652 24.2999 82.9577 24.47V27.1761C82.9657 27.2722 82.9534 27.369 82.9214 27.46C82.8895 27.5511 82.8388 27.6344 82.7725 27.7046C82.5828 27.8417 82.3491 27.9039 82.1163 27.879H79.7189C79.528 27.8956 79.3358 27.8732 79.1538 27.8132C78.9719 27.7533 78.804 27.657 78.6605 27.5302C78.4478 27.2186 78.334 26.8503 78.334 26.4731C78.334 26.096 78.4478 25.7277 78.6605 25.4161C78.8015 25.2846 78.9686 25.1842 79.1509 25.1214C79.3332 25.0586 79.5268 25.0347 79.7189 25.0514H82.1057V24.5229C82.1113 24.3452 82.0467 24.1724 81.9257 24.0419C81.8467 23.9727 81.7542 23.9205 81.654 23.8886C81.5539 23.8568 81.4482 23.846 81.3436 23.857H78.6976V23.191H81.5553ZM79.9094 25.6169C79.8101 25.605 79.7093 25.6187 79.6167 25.6566C79.524 25.6945 79.4427 25.7555 79.3802 25.8336C79.2897 26.0216 79.2427 26.2275 79.2427 26.4361C79.2427 26.6447 79.2897 26.8507 79.3802 27.0387C79.4408 27.1195 79.5215 27.1831 79.6144 27.223C79.7073 27.2629 79.809 27.2777 79.9094 27.2659H81.8464C81.9147 27.257 81.9781 27.2254 82.0263 27.1761C82.0501 27.1548 82.069 27.1288 82.0818 27.0996C82.0946 27.0704 82.1009 27.0388 82.1004 27.007V25.6169H79.9094Z" fill="#221E20"/>
<path d="M85.7692 29.3693H84.8749L85.6951 27.8631L83.3613 23.1909H84.2557L86.1344 27.0544L88.0819 23.1909H88.9762L85.7692 29.3693Z" fill="#221E20"/>
<path d="M20.5871 3.66797H19.1053C18.8246 3.66797 18.5554 3.77934 18.3569 3.97757C18.1584 4.1758 18.0469 4.44467 18.0469 4.72501V15.6971C18.0469 15.9775 18.1584 16.2463 18.3569 16.4446C18.5554 16.6428 18.8246 16.7542 19.1053 16.7542H20.5871C20.8678 16.7542 21.137 16.6428 21.3355 16.4446C21.534 16.2463 21.6455 15.9775 21.6455 15.6971V4.75672C21.6455 4.47638 21.534 4.20752 21.3355 4.00928C21.137 3.81105 20.8678 3.69968 20.5871 3.69968" fill="#ED2C34"/>
<path d="M15.2571 3.66797C14.8111 3.66811 14.3745 3.79619 13.9992 4.03699C13.6239 4.27779 13.3258 4.62116 13.1403 5.02627L9.21884 13.3822C9.12358 13.5778 8.93836 13.9107 8.78489 13.9107C8.63141 13.9107 8.44619 13.5883 8.35093 13.3822L4.38715 5.02627C4.20164 4.62116 3.90352 4.27779 3.52825 4.03699C3.15298 3.79619 2.71636 3.66811 2.27031 3.66797H0L6.24997 15.75C6.87973 16.9392 8.13396 16.9127 8.78489 16.9127C9.68454 16.9127 10.7324 16.8652 11.2933 15.75L17.538 3.66797H15.2571Z" fill="#ED2C34"/>
<path d="M84.3018 1.65958C84.3018 1.37924 84.1902 1.11037 83.9918 0.91214C83.7933 0.713906 83.524 0.602539 83.2433 0.602539H81.7615C81.4808 0.602539 81.2116 0.713906 81.0131 0.91214C80.8146 1.11037 80.7031 1.37924 80.7031 1.65958V12.489C80.7031 14.1486 81.2906 15.1316 82.3437 15.8028C83.3968 16.4741 84.5399 16.7647 86.7361 16.7647H87.9268C88.2076 16.7647 88.4768 16.6534 88.6753 16.4551C88.8738 16.2569 88.9853 15.988 88.9853 15.7077V14.5397H88.0856C87.4347 14.5397 86.0746 14.5397 85.2702 13.9741C84.2118 13.2818 84.3123 12.045 84.3123 11.1571L84.3018 1.65958Z" fill="#ED2C34"/>
<path d="M61.1297 14.5397C60.4787 14.5397 59.1187 14.5397 58.3143 13.9741C57.2559 13.2818 57.3564 12.045 57.3564 11.1571V5.8719H60.8598C61.1405 5.8719 61.4097 5.76054 61.6082 5.5623C61.8067 5.36407 61.9182 5.09521 61.9182 4.81486V3.66797H57.3405V1.65958C57.3405 1.37924 57.229 1.11037 57.0305 0.91214C56.832 0.713906 56.5628 0.602539 56.2821 0.602539H54.8003C54.5196 0.602539 54.2504 0.713906 54.0519 0.91214C53.8534 1.11037 53.7419 1.37924 53.7419 1.65958V3.66797H46.1901V1.65958C46.1901 1.37924 46.0786 1.11037 45.8801 0.91214C45.6816 0.713906 45.4124 0.602539 45.1317 0.602539H43.6499C43.3692 0.602539 43.0999 0.713906 42.9014 0.91214C42.703 1.11037 42.5914 1.37924 42.5914 1.65958V3.66797H40.3105V4.82543C40.3105 5.10578 40.4221 5.37464 40.6206 5.57287C40.819 5.77111 41.0883 5.88247 41.369 5.88247H42.5597V12.489C42.5597 14.1486 43.1471 15.1316 44.2002 15.8028C45.2534 16.4741 46.3965 16.7647 48.5927 16.7647H49.7834C50.0641 16.7647 50.3333 16.6534 50.5318 16.4551C50.7303 16.2569 50.8418 15.988 50.8418 15.7077V14.5397H49.9422C49.2912 14.5397 47.9312 14.5397 47.1268 13.9741C46.0684 13.2818 46.1689 12.045 46.1689 11.1571V5.8719H53.7154V12.489C53.7154 14.1486 54.3029 15.1316 55.356 15.8028C56.4091 16.4741 57.5522 16.7647 59.7484 16.7647H60.9392C61.2199 16.7647 61.4891 16.6534 61.6876 16.4551C61.8861 16.2569 61.9976 15.988 61.9976 15.7077V14.5397H61.1297Z" fill="#ED2C34"/>
<path d="M38.9805 15.6973V14.5398H30.9683C29.6347 14.5398 28.1211 14.3918 27.6554 12.9859C27.5127 12.3939 27.4399 11.7873 27.4385 11.1784H36.9642C37.5909 11.2231 38.2137 11.0494 38.7265 10.6869C39.0017 10.4412 39.2151 10.1341 39.3493 9.79072C39.4836 9.4473 39.5349 9.07712 39.4992 8.71019C39.4992 7.05063 39.097 5.42278 37.1812 4.48201C35.6677 3.6998 33.6884 3.61523 31.7515 3.61523C30.2009 3.61523 27.4173 3.61523 25.6233 4.85198C23.8293 6.08872 23.6758 7.89098 23.6758 10.338C23.6758 12.0716 23.7657 13.8738 24.8506 15.0947C26.2107 16.6274 28.1899 16.749 29.8622 16.749H37.9115C38.1922 16.749 38.4615 16.6376 38.6599 16.4394C38.8584 16.2412 38.9699 15.9723 38.9699 15.692L38.9805 15.6973ZM35.7629 8.18695C35.7629 8.53578 35.6677 8.95331 34.9585 8.95331H29.8093C28.5022 8.95331 27.4385 9.55582 27.4385 10.2905V8.95331C27.4702 8.09182 27.4385 7.36774 28.1846 6.70709C29.1743 5.81917 30.6561 5.84031 31.6139 5.84031C32.5718 5.84031 33.8102 5.89316 34.7098 6.43754C35.0199 6.616 35.2797 6.87007 35.4648 7.17601C35.6499 7.48195 35.7543 7.82977 35.7682 8.18695" fill="#ED2C34"/>
<path d="M78.1162 15.6973V14.5398H70.1039C68.7703 14.5398 67.2568 14.3918 66.7911 12.9859C66.6484 12.3939 66.5756 11.7873 66.5741 11.1784H76.0999C76.7265 11.2227 77.3492 11.049 77.8622 10.6869C78.1374 10.4412 78.3507 10.1341 78.485 9.79072C78.6192 9.4473 78.6705 9.07712 78.6348 8.71019C78.6348 7.05063 78.2326 5.42278 76.3116 4.48201C74.8033 3.6998 72.8241 3.61523 70.9136 3.61523C69.363 3.61523 66.5794 3.61523 64.7854 4.85198C62.9914 6.08872 62.8379 7.89098 62.8379 10.338C62.8379 12.0716 62.9279 13.8738 64.0127 15.0947C65.3728 16.6274 67.352 16.749 69.0244 16.749H77.0525C77.3332 16.749 77.6024 16.6376 77.8009 16.4394C77.9994 16.2412 78.1109 15.9723 78.1109 15.692L78.1162 15.6973ZM74.8933 8.18167C74.8933 8.53049 74.798 8.94802 74.0889 8.94802H68.9397C67.6325 8.94802 66.5688 9.55054 66.5688 10.2852V8.95331C66.6006 8.09182 66.5688 7.36774 67.3097 6.70709C68.2993 5.81917 69.7864 5.84031 70.7443 5.84031C71.7022 5.84031 72.9405 5.89316 73.8402 6.43754C74.1503 6.616 74.41 6.87007 74.5951 7.17601C74.7802 7.48195 74.8846 7.82977 74.8986 8.18695" fill="#ED2C34"/>
<path d="M20.5872 0H19.1054C18.8247 0 18.5555 0.111367 18.357 0.309601C18.1585 0.507835 18.047 0.776699 18.047 1.05704V3.82121C18.0364 3.17113 18.7561 2.4312 19.8463 2.4312H20.5872C20.8679 2.4312 21.1371 2.31983 21.3356 2.1216C21.5341 1.92337 21.6456 1.6545 21.6456 1.37416V1.05704C21.6456 0.776699 21.5341 0.507835 21.3356 0.309601C21.1371 0.111367 20.8679 0 20.5872 0" fill="#ED2C34"/>
</svg>
