<svg width="48" height="48" viewBox="0 0 48 48" fill="none" xmlns="http://www.w3.org/2000/svg">
<path d="M24 1C19.451 1 15.0042 2.34893 11.2219 4.8762C7.43956 7.40347 4.4916 10.9956 2.75078 15.1983C1.00997 19.401 0.554489 24.0255 1.44195 28.4871C2.32941 32.9486 4.51995 37.0468 7.73655 40.2635C10.9532 43.4801 15.0514 45.6706 19.5129 46.5581C23.9745 47.4455 28.599 46.99 32.8017 45.2492C37.0044 43.5084 40.5965 40.5604 43.1238 36.7781C45.6511 32.9958 47 28.549 47 24C46.9934 17.9021 44.5681 12.0558 40.2562 7.74385C35.9443 3.43195 30.098 1.00662 24 1ZM34.507 24.862L17.507 34.862C17.3551 34.9513 17.1823 34.999 17.0061 35C16.8298 35.0011 16.6565 34.9556 16.5035 34.8681C16.3505 34.7806 16.2234 34.6542 16.135 34.5018C16.0466 34.3493 16 34.1762 16 34V14C16 13.8238 16.0466 13.6507 16.135 13.4982C16.2234 13.3458 16.3505 13.2194 16.5035 13.1319C16.6565 13.0444 16.8298 12.9989 17.0061 13C17.1823 13.001 17.3551 13.0487 17.507 13.138L34.507 23.138C34.6572 23.2263 34.7816 23.3523 34.8681 23.5035C34.9546 23.6547 35.0001 23.8258 35.0001 24C35.0001 24.1742 34.9546 24.3453 34.8681 24.4965C34.7816 24.6477 34.6572 24.7737 34.507 24.862Z" fill="white"/>
</svg>
