<svg width="15" height="16" viewBox="0 0 15 16" fill="none" xmlns="http://www.w3.org/2000/svg">
<path d="M7.50098 1.1665V14.1665" stroke="#080808" stroke-miterlimit="10"/>
<path d="M1 7.66699H14" stroke="#080808" stroke-miterlimit="10"/>
<path d="M7.49902 14.6665C8.6879 14.6665 9.62962 13.7157 10.2443 12.4863C10.874 11.227 11.249 9.52222 11.249 7.6665C11.249 5.81079 10.874 4.10603 10.2443 2.8467C9.62962 1.61728 8.6879 0.666504 7.49902 0.666504C6.31015 0.666504 5.36842 1.61728 4.75371 2.8467C4.12405 4.10603 3.74902 5.81079 3.74902 7.6665C3.74902 9.52222 4.12405 11.227 4.75371 12.4863C5.36842 13.7157 6.31015 14.6665 7.49902 14.6665Z" stroke="#080808" stroke-miterlimit="10" stroke-linecap="square"/>
<path d="M7.5 14.6665C11.366 14.6665 14.5 11.5325 14.5 7.6665C14.5 3.80051 11.366 0.666504 7.5 0.666504C3.63401 0.666504 0.5 3.80051 0.5 7.6665C0.5 11.5325 3.63401 14.6665 7.5 14.6665Z" stroke="#080808" stroke-miterlimit="10" stroke-linecap="square"/>
</svg>
