<svg width="96" height="96" viewBox="0 0 96 96" fill="none" xmlns="http://www.w3.org/2000/svg">
<circle cx="53.4342" cy="42.4265" r="30" transform="rotate(-45 53.4342 42.4265)" fill="#E70031"/>
<mask id="path-2-inside-1" fill="white">
<path fill-rule="evenodd" clip-rule="evenodd" d="M50.1155 33.4265C46.1911 33.4265 43.0098 36.6079 43.0098 40.5323C43.0098 40.5849 43.0103 40.6374 43.0115 40.6898V51.9009C43.9533 50.4882 46.6739 47.6712 50.0565 47.6377C50.0762 47.6379 50.0958 47.638 50.1155 47.638H56.1897C60.1141 47.638 63.2954 44.4566 63.2954 40.5323C63.2954 36.6079 60.1141 33.4265 56.1897 33.4265H50.1155Z"/>
</mask>
<path fill-rule="evenodd" clip-rule="evenodd" d="M50.1155 33.4265C46.1911 33.4265 43.0098 36.6079 43.0098 40.5323C43.0098 40.5849 43.0103 40.6374 43.0115 40.6898V51.9009C43.9533 50.4882 46.6739 47.6712 50.0565 47.6377C50.0762 47.6379 50.0958 47.638 50.1155 47.638H56.1897C60.1141 47.638 63.2954 44.4566 63.2954 40.5323C63.2954 36.6079 60.1141 33.4265 56.1897 33.4265H50.1155Z" fill="white"/>
<path d="M43.0115 40.6898H45.329V40.6646L45.3284 40.6394L43.0115 40.6898ZM43.0115 51.9009H40.694V59.555L44.9397 53.1864L43.0115 51.9009ZM50.0565 47.6377L50.0754 45.3203L50.0545 45.3202L50.0336 45.3204L50.0565 47.6377ZM45.3273 40.5323C45.3273 37.8878 47.471 35.744 50.1155 35.744V31.109C44.9112 31.109 40.6923 35.3279 40.6923 40.5323H45.3273ZM45.3284 40.6394C45.3276 40.6038 45.3273 40.5681 45.3273 40.5323H40.6923C40.6923 40.6017 40.693 40.671 40.6945 40.7402L45.3284 40.6394ZM45.329 51.9009V40.6898H40.694V51.9009H45.329ZM50.0336 45.3204C47.7029 45.3434 45.7164 46.3188 44.2584 47.3758C42.8005 48.4328 41.6967 49.6951 41.0832 50.6154L44.9397 53.1864C45.268 52.694 45.9955 51.8414 46.979 51.1283C47.9624 50.4154 49.0275 49.9655 50.0794 49.9551L50.0336 45.3204ZM50.1155 45.3205C50.102 45.3205 50.0887 45.3204 50.0754 45.3203L50.0376 49.9552C50.0636 49.9554 50.0896 49.9555 50.1155 49.9555V45.3205ZM56.1897 45.3205H50.1155V49.9555H56.1897V45.3205ZM60.9779 40.5323C60.9779 43.1767 58.8342 45.3205 56.1897 45.3205V49.9555C61.394 49.9555 65.6129 45.7366 65.6129 40.5323H60.9779ZM56.1897 35.744C58.8342 35.744 60.9779 37.8878 60.9779 40.5323H65.6129C65.6129 35.3279 61.394 31.109 56.1897 31.109V35.744ZM50.1155 35.744H56.1897V31.109H50.1155V35.744Z" fill="white" mask="url(#path-2-inside-1)"/>
<path d="M28.6009 49.5319L43.2978 64.2288L23.2214 69.6083L28.6009 49.5319Z" fill="#E70031"/>
</svg>
