<svg width="22" height="21" viewBox="0 0 22 21" fill="none" xmlns="http://www.w3.org/2000/svg">
<path d="M11 2V18.1667" stroke="white" stroke-width="2" stroke-miterlimit="10"/>
<path d="M2.91602 10.0835H19.0827" stroke="white" stroke-width="2" stroke-miterlimit="10"/>
<path d="M10.9987 19.1667C12.6976 19.1667 13.9665 17.8154 14.751 16.2463C15.5655 14.6174 16.0404 12.4371 16.0404 10.0833C16.0404 7.7296 15.5655 5.54925 14.751 3.92034C13.9665 2.35124 12.6976 1 10.9987 1C9.29979 1 8.03093 2.35124 7.24638 3.92034C6.43192 5.54925 5.95703 7.7296 5.95703 10.0833C5.95703 12.4371 6.43192 14.6174 7.24638 16.2463C8.03093 17.8154 9.29979 19.1667 10.9987 19.1667Z" stroke="white" stroke-width="2" stroke-miterlimit="10" stroke-linecap="square"/>
<path d="M10.9993 19.1667C16.0159 19.1667 20.0827 15.0999 20.0827 10.0833C20.0827 5.06675 16.0159 1 10.9993 1C5.98276 1 1.91602 5.06675 1.91602 10.0833C1.91602 15.0999 5.98276 19.1667 10.9993 19.1667Z" stroke="white" stroke-width="2" stroke-miterlimit="10" stroke-linecap="square"/>
</svg>
