<svg width="16" height="14" viewBox="0 0 16 14" fill="none" xmlns="http://www.w3.org/2000/svg">
<path d="M15.8947 12.5531L11.8947 4.5531C11.7417 4.2481 11.4447 4.0411 11.1057 4.0061C10.7677 3.9671 10.4327 4.1101 10.2197 4.3751L6.7917 8.6591L4.5547 7.1681C4.3267 7.0171 4.0457 6.9641 3.7807 7.0241C3.5137 7.0841 3.2827 7.2511 3.1427 7.4851L0.1427 12.4851C-0.0433004 12.7941 -0.0473004 13.1781 0.1297 13.4931C0.3067 13.8071 0.6397 14.0001 0.9997 14.0001H14.9997C15.3467 14.0001 15.6677 13.8201 15.8507 13.5251C16.0337 13.2301 16.0487 12.8621 15.8947 12.5531Z" fill="black"/>
<path d="M6 4C7.10457 4 8 3.10457 8 2C8 0.89543 7.10457 0 6 0C4.89543 0 4 0.89543 4 2C4 3.10457 4.89543 4 6 4Z" fill="black"/>
</svg>
