<svg width="26" height="27" viewBox="0 0 26 27" fill="none" xmlns="http://www.w3.org/2000/svg">
<g opacity="0.3">
<path d="M5.09766 11.4084L11.304 5.13867" stroke="#F8F6F6" stroke-width="2" stroke-miterlimit="10"/>
<path d="M14.6973 5.13867L20.9037 11.4084" stroke="#F8F6F6" stroke-width="2" stroke-miterlimit="10"/>
<path d="M20.9037 14.8367L14.6973 21.1067" stroke="#F8F6F6" stroke-width="2" stroke-miterlimit="10"/>
<path d="M11.304 21.1067L5.09766 14.8367" stroke="#F8F6F6" stroke-width="2" stroke-miterlimit="10"/>
<path d="M12.9996 5.84912C14.3251 5.84912 15.3996 4.76361 15.3996 3.42456C15.3996 2.08551 14.3251 1 12.9996 1C11.6741 1 10.5996 2.08551 10.5996 3.42456C10.5996 4.76361 11.6741 5.84912 12.9996 5.84912Z" stroke="#F8F6F6" stroke-width="2" stroke-miterlimit="10" stroke-linecap="square"/>
<path d="M3.4 15.5471C4.72549 15.5471 5.8 14.4616 5.8 13.1226C5.8 11.7835 4.72549 10.698 3.4 10.698C2.07452 10.698 1 11.7835 1 13.1226C1 14.4616 2.07452 15.5471 3.4 15.5471Z" stroke="#F8F6F6" stroke-width="2" stroke-miterlimit="10" stroke-linecap="square"/>
<path d="M12.9996 15.5471C14.3251 15.5471 15.3996 14.4616 15.3996 13.1226C15.3996 11.7835 14.3251 10.698 12.9996 10.698C11.6741 10.698 10.5996 11.7835 10.5996 13.1226C10.5996 14.4616 11.6741 15.5471 12.9996 15.5471Z" stroke="#F8F6F6" stroke-width="2" stroke-miterlimit="10" stroke-linecap="square"/>
<path d="M22.5992 15.5471C23.9247 15.5471 24.9992 14.4616 24.9992 13.1226C24.9992 11.7835 23.9247 10.698 22.5992 10.698C21.2737 10.698 20.1992 11.7835 20.1992 13.1226C20.1992 14.4616 21.2737 15.5471 22.5992 15.5471Z" stroke="#F8F6F6" stroke-width="2" stroke-miterlimit="10" stroke-linecap="square"/>
<path d="M12.9996 25.2451C14.3251 25.2451 15.3996 24.1596 15.3996 22.8206C15.3996 21.4815 14.3251 20.396 12.9996 20.396C11.6741 20.396 10.5996 21.4815 10.5996 22.8206C10.5996 24.1596 11.6741 25.2451 12.9996 25.2451Z" stroke="#F8F6F6" stroke-width="2" stroke-miterlimit="10" stroke-linecap="square"/>
</g>
</svg>
