<svg width="1050" height="543" viewBox="0 0 1050 543" fill="none" xmlns="http://www.w3.org/2000/svg">
<circle cx="525" cy="272" r="368.5" stroke="#F43A36" stroke-width="3"/>
<circle cx="525" cy="272" r="224.5" stroke="#F43A36" stroke-width="3"/>
<circle cx="525" cy="272" r="524.5" stroke="#F43A36"/>
<mask id="path-4-inside-1" fill="white">
<path fill-rule="evenodd" clip-rule="evenodd" d="M500.717 197C468.841 197 443 222.841 443 254.717C443 255.18 443.005 255.642 443.016 256.103V347.06C450.666 335.586 472.762 312.706 500.236 312.432C500.396 312.434 500.557 312.434 500.717 312.434H550.055C581.932 312.434 607.772 286.593 607.772 254.717C607.772 222.841 581.932 197 550.055 197H500.717Z"/>
</mask>
<path d="M443.016 256.103H461.016V255.891L461.011 255.679L443.016 256.103ZM443.016 347.06H425.016V406.51L457.993 357.045L443.016 347.06ZM500.236 312.432L500.383 294.433L500.22 294.431L500.057 294.433L500.236 312.432ZM461 254.717C461 232.782 478.782 215 500.717 215V179C458.9 179 425 212.9 425 254.717H461ZM461.011 255.679C461.004 255.36 461 255.039 461 254.717H425C425 255.322 425.007 255.925 425.021 256.527L461.011 255.679ZM461.016 347.06V256.103H425.016V347.06H461.016ZM500.057 294.433C481.354 294.619 465.384 302.449 453.626 310.973C441.87 319.497 432.972 329.677 428.039 337.075L457.993 357.045C460.71 352.969 466.686 345.971 474.758 340.119C482.83 334.266 491.645 330.519 500.415 330.431L500.057 294.433ZM500.717 294.434C500.606 294.434 500.494 294.434 500.383 294.433L500.09 330.432C500.298 330.433 500.508 330.434 500.717 330.434V294.434ZM550.055 294.434H500.717V330.434H550.055V294.434ZM589.772 254.717C589.772 276.652 571.991 294.434 550.055 294.434V330.434C591.873 330.434 625.772 296.534 625.772 254.717H589.772ZM550.055 215C571.991 215 589.772 232.782 589.772 254.717H625.772C625.772 212.9 591.873 179 550.055 179V215ZM500.717 215H550.055V179H500.717V215Z" fill="white" mask="url(#path-4-inside-1)"/>
</svg>
