<svg width="1050" height="1050" viewBox="0 0 1050 1050" fill="none" xmlns="http://www.w3.org/2000/svg">
<circle cx="525" cy="525" r="368.5" stroke="#F43A36" stroke-width="3"/>
<circle cx="525" cy="525" r="224.5" stroke="#F43A36" stroke-width="3"/>
<circle cx="525" cy="525" r="524.5" stroke="#F43A36"/>
<mask id="path-4-inside-1" fill="white">
<path fill-rule="evenodd" clip-rule="evenodd" d="M500.717 450C468.841 450 443 475.841 443 507.717C443 508.18 443.005 508.642 443.016 509.103V600.06C450.666 588.586 472.762 565.706 500.236 565.432C500.396 565.434 500.557 565.434 500.717 565.434H550.055C581.932 565.434 607.772 539.593 607.772 507.717C607.772 475.841 581.932 450 550.055 450H500.717Z"/>
</mask>
<path d="M443.016 509.103H461.016V508.891L461.011 508.679L443.016 509.103ZM443.016 600.06H425.016V659.51L457.993 610.045L443.016 600.06ZM500.236 565.432L500.383 547.433L500.22 547.431L500.057 547.433L500.236 565.432ZM461 507.717C461 485.782 478.782 468 500.717 468V432C458.9 432 425 465.9 425 507.717H461ZM461.011 508.679C461.004 508.36 461 508.039 461 507.717H425C425 508.322 425.007 508.925 425.021 509.527L461.011 508.679ZM461.016 600.06V509.103H425.016V600.06H461.016ZM500.057 547.433C481.354 547.619 465.384 555.449 453.626 563.973C441.87 572.497 432.972 582.677 428.039 590.075L457.993 610.045C460.71 605.969 466.686 598.971 474.758 593.119C482.83 587.266 491.645 583.519 500.415 583.431L500.057 547.433ZM500.717 547.434C500.606 547.434 500.494 547.434 500.383 547.433L500.09 583.432C500.298 583.433 500.508 583.434 500.717 583.434V547.434ZM550.055 547.434H500.717V583.434H550.055V547.434ZM589.772 507.717C589.772 529.652 571.991 547.434 550.055 547.434V583.434C591.873 583.434 625.772 549.534 625.772 507.717H589.772ZM550.055 468C571.991 468 589.772 485.782 589.772 507.717H625.772C625.772 465.9 591.873 432 550.055 432V468ZM500.717 468H550.055V432H500.717V468Z" fill="white" mask="url(#path-4-inside-1)"/>
</svg>
