<svg width="24" height="24" viewBox="0 0 24 24" fill="none" xmlns="http://www.w3.org/2000/svg">
<path d="M23 13H1C0.448 13 0 12.553 0 12C0 11.447 0.448 11 1 11H23C23.552 11 24 11.447 24 12C24 12.553 23.552 13 23 13Z" fill="black"/>
<path d="M23 6H1C0.448 6 0 5.553 0 5C0 4.447 0.448 4 1 4H23C23.552 4 24 4.447 24 5C24 5.553 23.552 6 23 6Z" fill="black"/>
<path d="M23 20H12C11.448 20 11 19.553 11 19C11 18.447 11.448 18 12 18H23C23.552 18 24 18.447 24 19C24 19.553 23.552 20 23 20Z" fill="black"/>
</svg>
