<svg width="27" height="24" viewBox="0 0 27 24" fill="none" xmlns="http://www.w3.org/2000/svg">
<g opacity="0.3">
<path d="M13.1295 14.7709C12.2244 14.7709 11.4883 14.0348 11.4883 13.1297C11.4883 12.2246 12.2244 11.4885 13.1295 11.4885C14.0346 11.4885 14.7707 12.2246 14.7707 13.1297C14.7707 14.0348 14.0346 14.7709 13.1295 14.7709ZM13.1295 13.1297V13.1314V13.1297Z" fill="#F8F6F6"/>
<path d="M20.2243 23.9991C19.9675 23.9991 19.7139 23.8784 19.5539 23.6519C19.2921 23.2827 19.3799 22.7706 19.75 22.508C22.7977 20.3523 24.6178 16.846 24.6178 13.1295C24.6178 6.79451 19.4645 1.64119 13.1295 1.64119C6.79451 1.64119 1.64119 6.79451 1.64119 13.1295C1.64119 16.846 3.46126 20.3523 6.50976 22.5089C6.87985 22.7706 6.96847 23.2827 6.70588 23.6528C6.44412 24.0229 5.93125 24.1115 5.56198 23.8489C2.07938 21.3855 0 17.3777 0 13.1295C0 5.89022 5.89022 0 13.1295 0C20.3688 0 26.259 5.89022 26.259 13.1295C26.259 17.3777 24.1796 21.3855 20.697 23.8481C20.5534 23.9506 20.3876 23.9991 20.2243 23.9991Z" fill="#F8F6F6"/>
<path d="M16.9132 19.3094C16.6564 19.3094 16.4028 19.1896 16.2428 18.9631C15.981 18.593 16.0688 18.0809 16.4381 17.8183C17.9636 16.7401 18.8736 14.9873 18.8736 13.1295C18.8736 9.96281 16.2961 7.38533 13.1295 7.38533C9.96281 7.38533 7.38533 9.96281 7.38533 13.1295C7.38533 14.9873 8.29536 16.7401 9.82085 17.8192C10.1901 18.0809 10.2787 18.593 10.0161 18.9639C9.75438 19.3332 9.24315 19.4218 8.87142 19.1592C6.91349 17.7724 5.74414 15.5182 5.74414 13.1295C5.74414 9.05687 9.05687 5.74414 13.1295 5.74414C17.2021 5.74414 20.5148 9.05687 20.5148 13.1295C20.5148 15.5182 19.3455 17.7724 17.3867 19.1592C17.2431 19.2609 17.0773 19.3094 16.9132 19.3094Z" fill="#F8F6F6"/>
</g>
</svg>
