<svg width="67" height="65" viewBox="0 0 67 65" fill="none" xmlns="http://www.w3.org/2000/svg">
<mask id="path-1-inside-1" fill="white">
<path fill-rule="evenodd" clip-rule="evenodd" d="M17.6092 12.1872C7.93297 15.7091 2.94389 26.4082 6.46574 36.0844C6.5108 36.2082 6.55704 36.3312 6.60443 36.4535L16.6721 64.1142C17.7264 59.7858 21.9063 50.3988 30.2163 47.2805C30.2652 47.2632 30.3141 47.2456 30.3629 47.2278L45.3398 41.7767C55.016 38.2548 60.0051 27.5557 56.4833 17.8795C52.9614 8.20332 42.2623 3.21422 32.5861 6.73607L17.6092 12.1872Z"/>
</mask>
<path d="M17.6092 12.1872L15.5294 6.47307L17.6092 12.1872ZM6.60443 36.4535L12.3186 34.3737L12.297 34.3145L12.2742 34.2557L6.60443 36.4535ZM16.6721 64.1142L10.9579 66.1939L17.827 85.0665L22.5802 65.5533L16.6721 64.1142ZM30.2163 47.2805L28.1833 41.5496L28.1315 41.568L28.08 41.5873L30.2163 47.2805ZM32.5861 6.73607L34.6659 12.4502L32.5861 6.73607ZM12.1799 34.0046C9.80667 27.4843 13.1686 20.2746 19.6889 17.9014L15.5294 6.47307C2.69735 11.1436 -3.91888 25.3322 0.751595 38.1642L12.1799 34.0046ZM12.2742 34.2557C12.242 34.1726 12.2106 34.0889 12.1799 34.0046L0.751595 38.1642C0.811037 38.3275 0.872062 38.4899 0.93465 38.6513L12.2742 34.2557ZM22.3862 62.0344L12.3186 34.3737L0.890285 38.5333L10.9579 66.1939L22.3862 62.0344ZM28.08 41.5873C22.3541 43.7358 18.3316 47.9234 15.6854 51.8381C13.0394 55.7526 11.4508 59.8554 10.764 62.675L22.5802 65.5533C22.9477 64.0446 23.9762 61.2896 25.7612 58.6489C27.546 56.0085 29.7685 53.9434 32.3526 52.9738L28.08 41.5873ZM28.2831 41.5137C28.25 41.5258 28.2167 41.5377 28.1833 41.5496L32.2494 53.0114C32.3138 52.9886 32.3782 52.9655 32.4427 52.942L28.2831 41.5137ZM43.26 36.0626L28.2831 41.5137L32.4427 52.942L47.4196 47.4908L43.26 36.0626ZM50.7691 19.9593C53.1423 26.4797 49.7804 33.6893 43.26 36.0626L47.4196 47.4908C60.2516 42.8204 66.8679 28.6318 62.1974 15.7997L50.7691 19.9593ZM34.6659 12.4502C41.1862 10.077 48.3959 13.4389 50.7691 19.9593L62.1974 15.7997C57.5269 2.96771 43.3383 -3.64856 30.5063 1.02192L34.6659 12.4502ZM19.6889 17.9014L34.6659 12.4502L30.5063 1.02192L15.5294 6.47307L19.6889 17.9014Z" fill="white" mask="url(#path-1-inside-1)"/>
</svg>
