<svg width="33" height="30" viewBox="0 0 33 30" fill="none" xmlns="http://www.w3.org/2000/svg">
<mask id="path-1-inside-1" fill="white">
<path fill-rule="evenodd" clip-rule="evenodd" d="M11.5388 0C5.1661 0 0 5.1661 0 11.5388C0 11.6326 0.00112029 11.7262 0.00334821 11.8195V30C1.53281 27.7058 5.95114 23.131 11.4445 23.0772C11.4759 23.0775 11.5073 23.0776 11.5388 23.0776H21.4025C27.7752 23.0776 32.9413 17.9115 32.9413 11.5388C32.9413 5.1661 27.7752 0 21.4025 0H11.5388Z"/>
</mask>
<path d="M0.00334821 11.8195H4.00335V11.7718L4.00221 11.7241L0.00334821 11.8195ZM0.00334821 30H-3.99665V43.2111L3.33155 32.2188L0.00334821 30ZM11.4445 23.0772L11.4766 19.0774L11.441 19.0771L11.4054 19.0774L11.4445 23.0772ZM4 11.5388C4 7.37524 7.37524 4 11.5388 4V-4C2.95696 -4 -4 2.95696 -4 11.5388H4ZM4.00221 11.7241C4.00074 11.6626 4 11.6008 4 11.5388H-4C-4 11.6645 -3.9985 11.7899 -3.99551 11.915L4.00221 11.7241ZM4.00335 30V11.8195H-3.99665V30H4.00335ZM11.4054 19.0774C7.5549 19.1151 4.28171 20.7258 1.88966 22.46C-0.502237 24.194 -2.31395 26.2649 -3.32485 27.7812L3.33155 32.2188C3.85011 31.441 5.01229 30.0773 6.58528 28.9369C8.15811 27.7967 9.84078 27.0931 11.4837 27.077L11.4054 19.0774ZM11.5388 19.0776C11.518 19.0776 11.4973 19.0775 11.4766 19.0774L11.4125 27.0771C11.4546 27.0774 11.4967 27.0776 11.5388 27.0776V19.0776ZM21.4025 19.0776H11.5388V27.0776H21.4025V19.0776ZM28.9413 11.5388C28.9413 15.7024 25.5661 19.0776 21.4025 19.0776V27.0776C29.9844 27.0776 36.9413 20.1206 36.9413 11.5388H28.9413ZM21.4025 4C25.5661 4 28.9413 7.37523 28.9413 11.5388H36.9413C36.9413 2.95696 29.9844 -4 21.4025 -4V4ZM11.5388 4H21.4025V-4H11.5388V4Z" fill="#EC2C34" mask="url(#path-1-inside-1)"/>
</svg>
