<svg width="54" height="49" viewBox="0 0 54 49" fill="none" xmlns="http://www.w3.org/2000/svg">
<mask id="path-1-inside-1" fill="white">
<path fill-rule="evenodd" clip-rule="evenodd" d="M19.4182 0C9.12096 0 0.773438 8.34753 0.773438 18.6447C0.773438 18.7765 0.774804 18.9079 0.777524 19.039V48.4749C3.24867 44.7681 10.387 37.3768 19.2624 37.2888C19.3143 37.2892 19.3662 37.2895 19.4182 37.2895H35.3562C45.6534 37.2895 54.001 28.9419 54.001 18.6447C54.001 8.34753 45.6534 0 35.3562 0H19.4182Z"/>
</mask>
<path d="M0.777524 19.039H6.85839V18.9759L6.85708 18.9129L0.777524 19.039ZM0.777524 48.4749H-5.30334V68.5586L5.83711 51.8479L0.777524 48.4749ZM19.2624 37.2888L19.312 31.2082L19.2571 31.2077L19.2021 31.2083L19.2624 37.2888ZM6.8543 18.6447C6.8543 11.7059 12.4793 6.08087 19.4182 6.08087V-6.08087C5.76259 -6.08087 -5.30743 4.98917 -5.30743 18.6447H6.8543ZM6.85708 18.9129C6.85523 18.8238 6.8543 18.7344 6.8543 18.6447H-5.30743C-5.30743 18.8185 -5.30563 18.992 -5.30203 19.1651L6.85708 18.9129ZM6.85839 48.4749V19.039H-5.30334V48.4749H6.85839ZM19.2021 31.2083C13.0867 31.2689 7.87452 33.8282 4.04902 36.6017C0.223753 39.3751 -2.67228 42.6871 -4.28206 45.1018L5.83711 51.8479C6.69847 50.5559 8.60718 48.3188 11.1877 46.4479C13.768 44.5771 16.5627 43.3967 19.3227 43.3694L19.2021 31.2083ZM19.4182 31.2086C19.3828 31.2086 19.3475 31.2084 19.312 31.2082L19.2128 43.3695C19.2811 43.37 19.3495 43.3703 19.4182 43.3703V31.2086ZM35.3562 31.2086H19.4182V43.3703H35.3562V31.2086ZM47.9201 18.6447C47.9201 25.5836 42.2951 31.2086 35.3562 31.2086V43.3703C49.0118 43.3703 60.0818 32.3003 60.0818 18.6447H47.9201ZM35.3562 6.08087C42.2951 6.08087 47.9201 11.7059 47.9201 18.6447H60.0818C60.0818 4.98917 49.0118 -6.08087 35.3562 -6.08087V6.08087ZM19.4182 6.08087H35.3562V-6.08087H19.4182V6.08087Z" fill="white" mask="url(#path-1-inside-1)"/>
</svg>
